<?xml version="1.0" encoding="UTF-8" ?>
<!DOCTYPE svg PUBLIC "-//W3C//DTD SVG 1.1//EN" "http://www.w3.org/Graphics/SVG/1.1/DTD/svg11.dtd">
<svg width="546pt" height="158pt" viewBox="0 0 546 158" version="1.1" xmlns="http://www.w3.org/2000/svg">
<g id="#000000ff">
<path fill="#000000" opacity="1.00" d=" M 540.61 0.00 L 545.52 0.00 L 545.51 0.43 L 546.00 0.57 L 546.00 5.34 C 543.33 10.65 538.98 14.75 534.57 18.60 C 529.09 26.65 523.14 34.41 516.35 41.40 C 513.95 45.87 512.27 50.91 511.81 55.98 C 518.02 56.63 524.07 54.79 530.27 54.78 C 533.39 53.58 536.77 54.01 540.04 53.99 L 539.98 54.70 C 538.78 55.03 537.59 55.37 536.41 55.71 C 535.96 55.84 535.06 56.10 534.61 56.23 C 532.86 56.79 531.09 57.29 529.33 57.79 C 526.99 57.88 524.66 58.09 522.38 58.60 C 516.48 60.46 509.87 60.82 503.96 58.86 C 503.97 56.76 504.00 54.65 504.04 52.54 C 504.84 51.57 505.64 50.58 506.42 49.58 C 504.95 50.18 503.60 50.99 502.32 51.88 C 501.62 51.90 500.23 51.93 499.53 51.95 C 500.51 50.49 501.43 49.00 502.25 47.45 C 501.01 48.62 499.78 49.78 498.49 50.89 C 498.01 50.95 497.03 51.06 496.55 51.12 C 493.52 53.81 490.03 55.96 486.41 57.76 C 483.77 58.25 481.05 57.97 478.38 58.01 C 477.94 57.50 477.05 56.47 476.61 55.96 C 475.61 56.01 474.62 56.06 473.64 56.11 C 469.16 59.47 463.96 61.66 459.37 64.84 C 458.87 64.90 457.87 65.00 457.37 65.05 C 456.92 65.54 456.04 66.52 455.59 67.01 C 452.72 67.00 449.86 67.00 446.99 67.00 C 447.00 64.95 447.01 62.91 447.03 60.86 C 444.53 62.22 442.00 63.52 439.48 64.82 C 439.01 64.93 438.07 65.14 437.60 65.25 C 434.02 67.23 429.80 67.18 426.09 68.82 C 423.89 68.13 421.59 67.91 419.30 67.90 C 418.99 67.16 418.69 66.42 418.40 65.68 C 418.77 63.79 419.01 61.88 419.19 59.96 C 418.55 59.99 417.27 60.07 416.63 60.10 C 412.34 64.95 406.61 68.16 401.37 71.85 C 400.88 71.90 399.90 72.01 399.41 72.06 C 398.98 72.48 398.10 73.31 397.66 73.73 C 394.12 74.90 390.54 76.21 386.75 76.10 C 386.37 76.31 385.60 76.72 385.22 76.93 C 381.72 76.16 378.22 75.32 374.99 73.73 C 374.99 72.61 374.99 71.49 375.00 70.37 C 375.50 69.93 376.51 69.05 377.01 68.61 C 377.00 67.41 376.99 66.20 376.99 65.00 C 373.13 65.00 369.27 65.00 365.41 65.00 C 364.96 64.52 364.07 63.54 363.63 63.06 C 363.13 62.99 362.13 62.86 361.63 62.80 C 360.60 62.45 359.58 62.11 358.56 61.78 C 355.08 65.89 350.55 69.02 347.57 73.55 C 343.77 78.34 337.73 82.41 337.75 89.19 C 336.61 88.96 335.48 88.72 334.35 88.49 C 331.97 87.91 330.40 86.22 330.93 83.66 C 333.34 81.53 335.54 79.16 337.84 76.91 C 341.23 72.28 343.38 66.90 346.15 61.90 C 345.52 61.96 344.26 62.07 343.64 62.13 C 342.29 63.05 340.92 63.95 339.56 64.83 C 336.70 65.22 334.02 66.27 331.36 67.32 C 330.91 67.72 330.01 68.52 329.56 68.92 C 324.50 69.19 317.86 69.02 314.94 74.01 C 310.45 80.38 307.78 87.85 302.83 93.90 C 298.43 101.34 294.05 108.85 288.59 115.58 C 285.77 119.49 283.72 123.92 280.55 127.58 C 277.19 131.46 274.56 135.89 271.41 139.93 C 270.93 139.95 269.98 139.99 269.50 140.01 C 268.57 139.15 267.65 138.30 266.72 137.46 C 267.29 135.22 268.28 133.13 269.86 131.43 C 269.92 130.95 270.05 130.00 270.11 129.52 C 274.35 125.11 276.98 119.49 281.03 114.92 C 285.53 109.63 288.68 103.22 294.02 98.66 C 294.01 98.10 293.99 96.99 293.98 96.43 C 296.55 93.03 299.41 89.65 300.29 85.35 C 300.70 84.91 301.51 84.03 301.92 83.59 C 301.99 83.10 302.13 82.13 302.20 81.64 C 304.33 77.18 304.74 71.97 303.22 67.26 C 303.42 67.10 303.82 66.77 304.02 66.61 C 301.95 64.02 299.99 61.35 298.22 58.55 C 298.95 57.29 299.74 56.06 300.61 54.89 C 302.78 54.63 304.46 55.63 305.61 57.42 C 307.51 59.97 309.07 62.79 311.35 65.05 C 312.44 65.03 313.54 65.01 314.64 65.00 C 317.48 61.33 319.73 57.24 322.67 53.64 C 325.79 49.59 327.98 44.79 331.86 41.37 L 331.94 40.63 C 330.08 41.23 328.23 41.87 326.42 42.60 C 325.22 43.11 324.02 43.63 322.83 44.15 C 322.10 43.53 321.38 42.91 320.66 42.29 C 334.17 36.01 346.57 26.94 355.58 14.96 C 357.46 15.09 360.67 14.43 361.05 17.01 C 359.17 20.06 356.17 22.18 353.55 24.55 C 350.17 27.52 346.79 30.48 343.73 33.78 C 342.31 35.34 340.89 36.90 339.49 38.47 C 336.98 41.50 334.89 44.86 332.38 47.89 C 332.23 48.31 331.93 49.14 331.79 49.55 C 327.16 54.96 323.36 61.01 319.63 67.05 C 321.18 66.98 322.73 66.90 324.28 66.82 C 325.66 66.48 327.02 66.05 328.38 65.61 C 329.43 65.36 330.49 65.12 331.55 64.89 C 332.88 63.96 334.23 63.06 335.59 62.18 C 336.07 62.10 337.02 61.95 337.49 61.87 C 341.04 60.14 344.29 57.90 347.36 55.43 C 349.49 53.52 352.48 54.11 355.10 53.90 C 355.09 56.51 355.00 59.16 353.98 61.60 C 355.42 60.03 356.91 58.52 358.43 57.02 C 357.94 56.49 356.95 55.41 356.46 54.88 C 357.69 53.93 358.88 52.87 360.32 52.23 C 362.26 51.49 364.18 52.66 366.03 53.16 C 366.01 55.33 366.00 57.50 365.98 59.68 C 370.13 62.15 375.23 62.97 379.73 60.92 C 381.13 57.45 382.69 53.98 385.17 51.14 C 386.33 50.88 387.48 50.61 388.64 50.34 C 389.07 50.15 389.92 49.78 390.35 49.59 C 394.00 48.37 398.00 48.79 401.10 51.16 C 401.08 51.79 401.05 53.04 401.03 53.67 C 398.46 56.11 395.53 58.12 392.51 59.96 C 391.99 59.96 390.95 59.98 390.42 59.98 C 388.13 61.27 386.28 63.11 385.01 65.42 C 384.97 65.92 384.89 66.93 384.85 67.43 C 384.17 68.82 383.46 70.19 382.72 71.54 C 383.77 72.03 384.81 72.52 385.86 73.02 L 386.28 71.81 C 386.66 72.14 387.43 72.81 387.81 73.15 C 390.42 71.33 393.47 70.72 396.61 70.91 C 397.05 70.45 397.94 69.52 398.38 69.06 C 398.87 69.00 399.87 68.89 400.37 68.84 C 406.14 65.17 412.22 61.90 417.48 57.49 C 421.19 54.75 425.27 52.33 427.35 47.98 C 429.56 47.98 431.77 47.99 433.98 48.01 C 433.99 48.73 434.00 50.19 434.01 50.91 C 433.51 50.96 432.52 51.04 432.02 51.08 C 432.00 51.67 431.96 52.83 431.94 53.41 C 428.84 55.00 427.27 58.25 424.91 60.65 C 425.05 62.17 424.79 64.00 426.38 64.88 C 429.47 65.51 432.57 64.67 435.55 63.88 C 439.28 60.99 443.91 59.59 447.60 56.65 C 451.39 53.03 452.98 47.84 456.26 43.81 C 458.42 43.91 462.63 43.63 461.98 46.94 C 460.00 51.19 457.13 55.04 454.04 58.56 C 454.02 60.16 454.01 61.76 454.02 63.37 C 457.66 62.15 461.05 60.14 464.92 59.73 C 464.96 59.31 465.05 58.46 465.09 58.04 C 465.66 58.00 466.79 57.92 467.36 57.88 C 468.71 56.96 470.07 56.05 471.44 55.15 C 473.12 54.71 474.79 54.22 476.47 53.74 C 480.00 51.87 483.61 49.83 485.33 46.01 C 485.86 45.99 486.92 45.93 487.45 45.91 C 489.93 42.07 493.81 39.68 497.55 37.23 C 501.76 35.62 506.22 36.17 510.22 38.10 C 511.85 37.14 513.42 36.05 514.58 34.53 C 516.80 31.76 519.37 29.28 521.49 26.42 C 523.89 23.45 525.32 19.75 528.28 17.22 C 531.99 13.97 533.86 9.27 537.02 5.55 C 537.02 5.01 537.00 3.92 537.00 3.37 C 538.19 2.24 539.37 1.09 540.61 0.00 M 500.43 40.00 C 498.19 42.22 496.12 44.61 493.74 46.68 C 492.25 48.05 489.73 48.77 489.76 51.19 C 491.00 51.08 492.24 50.98 493.49 50.89 C 497.58 47.60 502.00 44.77 506.21 41.65 C 505.81 41.23 505.00 40.41 504.59 40.00 C 503.20 40.00 501.81 40.00 500.43 40.00 M 487.31 52.94 C 488.36 53.92 490.87 52.61 489.76 51.19 C 488.75 50.31 486.53 51.68 487.31 52.94 M 391.34 52.02 C 390.30 54.06 389.42 56.18 388.78 58.38 C 391.17 56.66 393.61 55.00 396.27 53.72 C 395.85 53.29 395.02 52.42 394.60 51.99 C 393.51 52.00 392.42 52.01 391.34 52.02 Z" />
<path fill="#000000" opacity="1.00" d=" M 118.55 45.59 C 120.31 43.05 123.46 42.31 126.29 41.64 C 125.89 43.32 125.43 44.99 124.94 46.65 C 120.06 48.21 118.06 53.41 114.68 56.83 C 111.02 62.38 106.38 67.16 102.58 72.61 C 100.38 75.69 96.71 77.68 95.54 81.46 C 97.48 80.80 99.08 79.53 100.53 78.12 C 100.99 78.06 101.92 77.93 102.39 77.86 C 103.36 76.84 104.23 75.71 105.41 74.90 C 105.94 74.94 107.01 75.01 107.54 75.05 C 108.86 74.04 110.21 73.07 111.57 72.12 C 112.08 72.09 113.08 72.04 113.59 72.01 C 116.34 70.63 117.84 67.90 119.98 65.85 C 122.44 64.53 125.35 65.13 128.02 64.94 C 127.99 66.10 127.97 67.25 127.94 68.40 C 118.60 75.18 112.20 85.04 104.55 93.51 C 103.26 95.02 101.96 96.51 100.70 98.04 C 101.05 98.47 101.76 99.33 102.11 99.76 C 104.39 98.99 106.80 98.91 109.18 98.93 C 111.91 97.37 114.78 95.93 117.98 95.74 C 118.00 94.69 118.03 93.64 118.06 92.59 C 119.16 91.89 120.32 91.19 120.93 89.97 C 122.22 87.68 124.52 86.11 125.48 83.62 C 127.33 81.47 128.55 78.77 130.95 77.13 C 132.09 76.40 133.24 74.62 134.72 75.81 C 135.50 74.51 136.32 73.24 137.15 71.97 C 137.69 71.91 138.78 71.80 139.33 71.74 C 141.43 71.29 143.51 70.77 145.61 70.31 C 150.04 69.06 154.92 68.06 159.34 69.96 C 157.77 72.65 155.94 75.38 152.86 76.48 C 153.59 77.13 154.32 77.78 155.04 78.44 C 155.01 78.93 154.95 79.91 154.92 80.40 C 151.91 83.48 150.45 87.73 147.08 90.49 C 147.02 90.95 146.92 91.88 146.87 92.35 C 144.56 94.25 143.22 96.97 141.78 99.53 C 144.32 98.26 146.56 96.51 148.46 94.41 C 154.48 90.49 160.72 86.89 166.40 82.47 C 170.20 79.42 175.35 77.70 177.56 73.03 C 179.37 73.01 181.19 73.00 183.00 72.99 C 182.99 74.50 182.99 76.01 182.99 77.53 C 179.08 80.68 176.91 85.36 173.13 88.63 C 173.09 89.06 173.00 89.92 172.95 90.35 C 181.21 84.26 190.49 79.72 198.50 73.25 C 200.35 72.85 202.19 72.40 204.03 71.93 C 204.02 73.14 204.00 74.35 203.99 75.57 C 200.77 78.47 197.80 81.68 195.68 85.49 C 197.52 84.73 199.11 83.52 200.52 82.12 C 201.01 82.06 201.98 81.95 202.46 81.90 C 207.61 79.68 211.63 75.85 215.47 71.89 C 217.40 72.10 219.77 71.52 221.07 73.41 C 219.28 78.50 213.74 80.92 211.10 85.56 C 211.05 86.13 210.95 87.27 210.90 87.84 C 213.37 89.17 216.02 88.83 218.54 87.84 C 220.37 86.80 222.22 85.81 224.08 84.83 C 224.05 84.10 223.99 82.64 223.96 81.90 C 226.43 83.16 229.04 82.80 231.54 81.86 C 233.54 80.71 235.57 79.59 237.57 78.43 C 239.29 78.01 240.60 76.86 241.56 75.42 C 245.35 74.09 248.39 71.45 251.56 69.09 C 252.03 69.04 252.96 68.96 253.43 68.91 C 254.43 67.15 255.76 65.61 257.47 64.49 C 259.80 62.35 261.46 59.00 264.95 58.63 C 264.97 59.95 265.00 61.28 265.03 62.61 C 263.26 64.32 261.41 65.96 259.54 67.57 C 253.98 72.33 247.50 75.81 241.41 79.81 C 240.96 79.90 240.05 80.09 239.60 80.19 C 237.18 81.70 234.81 83.30 232.40 84.82 C 231.95 84.91 231.06 85.09 230.61 85.18 C 228.69 86.55 226.64 87.72 224.56 88.82 C 222.16 89.41 219.77 90.02 217.40 90.71 C 214.95 91.23 212.46 92.32 209.92 91.86 C 207.70 91.09 205.69 89.84 203.67 88.68 C 204.12 87.29 204.59 85.91 205.05 84.52 C 200.16 87.86 194.78 90.30 188.84 90.99 C 188.34 90.66 187.32 90.01 186.82 89.68 C 187.84 87.58 188.94 85.52 190.29 83.60 C 186.55 86.07 182.59 88.19 178.88 90.71 C 174.92 93.56 170.96 96.47 166.62 98.71 C 165.27 99.56 163.75 98.77 162.95 97.58 C 163.00 95.75 164.96 94.81 165.95 93.47 C 165.96 92.95 166.00 91.90 166.01 91.38 C 166.50 90.94 167.48 90.08 167.97 89.64 C 168.00 89.12 168.05 88.07 168.08 87.55 C 168.84 86.24 169.60 84.94 170.36 83.63 C 166.90 85.59 163.62 87.87 160.44 90.28 C 156.59 93.35 151.76 95.09 148.51 98.92 C 148.04 98.98 147.10 99.08 146.63 99.13 C 142.51 103.22 137.70 106.55 133.42 110.48 C 130.08 115.70 125.82 120.25 122.72 125.62 C 121.10 128.43 119.07 130.98 117.08 133.53 C 117.04 134.00 116.95 134.94 116.91 135.42 C 115.04 136.28 113.71 137.79 113.67 139.93 C 113.26 139.97 112.43 140.05 112.01 140.09 C 112.00 140.69 111.98 141.89 111.96 142.49 C 110.19 145.06 107.98 147.26 105.41 149.04 C 104.27 147.85 103.13 146.67 101.98 145.51 C 102.02 144.55 102.06 143.60 102.11 142.66 C 104.42 139.69 105.64 136.02 108.16 133.20 C 110.35 130.69 112.31 127.99 114.55 125.52 C 115.97 123.96 117.25 122.28 118.42 120.52 C 122.12 117.55 124.87 113.56 127.80 109.86 C 131.24 103.49 135.92 97.89 139.29 91.48 C 137.99 92.24 136.69 93.00 135.39 93.77 C 134.95 93.88 134.07 94.10 133.63 94.21 C 129.67 95.32 125.88 97.20 121.68 97.27 C 118.71 97.80 115.76 98.78 113.42 100.77 C 110.81 100.86 108.32 101.59 106.10 102.95 C 102.16 103.03 98.23 103.00 94.29 103.00 C 93.90 101.82 93.51 100.66 93.11 99.49 C 95.11 96.62 97.37 93.93 99.95 91.55 C 99.99 91.07 100.06 90.12 100.10 89.64 C 101.62 88.14 103.58 87.11 104.86 85.37 C 104.92 84.92 105.04 84.02 105.10 83.57 C 107.62 82.36 109.22 80.10 110.34 77.62 C 106.07 79.08 102.32 81.59 98.49 83.92 C 98.00 83.96 97.01 84.05 96.52 84.10 C 94.18 86.37 91.47 88.19 88.59 89.69 C 84.85 91.48 83.34 95.66 80.29 98.26 C 76.55 101.59 73.38 105.47 70.57 109.60 C 69.21 110.91 67.86 112.23 66.48 113.52 C 64.61 115.94 62.53 118.18 60.56 120.51 C 57.03 124.63 53.25 128.54 49.37 132.34 C 40.76 141.18 32.05 150.17 21.46 156.68 C 19.98 157.16 18.50 157.61 17.00 158.00 L 8.72 158.00 C 7.65 157.60 6.58 157.20 5.51 156.81 C 2.48 155.83 1.24 152.83 0.00 150.19 L 0.00 149.76 C 0.86 145.22 3.22 141.23 6.86 138.37 C 6.92 137.93 7.05 137.05 7.12 136.60 C 9.71 134.71 12.16 132.64 14.45 130.40 C 19.21 126.24 25.41 123.92 29.64 119.12 C 30.58 119.05 31.52 118.97 32.47 118.90 C 34.40 117.20 36.44 115.63 38.51 114.10 C 38.98 114.03 39.92 113.89 40.39 113.83 C 43.43 111.60 46.93 110.15 50.01 108.00 C 54.82 104.53 60.54 102.68 65.50 99.46 C 69.40 97.37 72.95 94.71 76.56 92.14 C 77.01 92.06 77.92 91.90 78.38 91.82 C 81.63 89.97 84.86 87.89 86.41 84.31 C 87.45 83.45 88.49 82.59 89.53 81.72 C 90.50 79.82 92.07 78.41 93.93 77.42 C 93.96 76.93 94.00 75.94 94.02 75.44 C 97.84 72.07 100.88 67.97 103.99 63.98 C 108.68 57.72 113.66 51.69 118.55 45.59 M 149.43 72.80 C 147.74 73.02 145.91 72.82 144.43 73.83 C 143.92 73.88 142.90 73.98 142.39 74.03 C 140.91 75.48 139.34 76.94 138.61 78.94 C 138.31 78.97 137.69 79.03 137.39 79.06 C 136.31 81.96 133.64 83.74 131.51 85.80 C 132.02 86.34 132.55 86.87 133.09 87.39 C 135.06 85.87 137.39 84.92 139.29 83.30 C 144.07 79.61 149.63 76.75 153.38 71.88 C 151.97 71.85 150.66 72.16 149.43 72.80 M 135.10 77.26 C 133.58 80.32 138.36 77.43 135.10 77.26 M 94.26 81.24 C 94.81 81.79 94.81 81.79 94.26 81.24 M 139.20 86.89 C 140.23 87.56 142.20 86.35 141.79 85.12 C 140.75 84.44 138.80 85.65 139.20 86.89 M 130.52 88.25 C 130.76 88.52 130.76 88.52 130.52 88.25 M 76.11 95.31 C 74.66 97.10 78.19 97.75 76.94 95.50 L 76.11 95.31 M 73.90 97.57 C 72.60 98.80 71.01 99.57 69.38 100.23 C 67.98 100.97 66.68 101.87 65.48 102.90 C 64.99 102.95 64.00 103.05 63.51 103.10 C 62.06 104.53 60.27 105.49 58.39 106.24 C 56.74 107.23 55.10 108.25 53.45 109.25 C 52.01 109.94 50.67 110.82 49.48 111.89 C 48.99 111.95 48.02 112.05 47.53 112.11 C 45.84 113.28 44.30 114.64 42.57 115.75 C 39.82 116.43 37.29 117.69 35.53 119.97 C 34.91 119.98 33.67 120.00 33.04 120.01 C 33.02 120.50 32.98 121.50 32.96 121.99 C 32.33 122.00 31.07 122.01 30.44 122.02 C 28.84 122.99 27.01 123.95 26.63 125.98 C 25.98 125.99 24.69 126.00 24.05 126.01 C 24.02 126.41 23.97 127.21 23.95 127.61 C 22.73 128.16 21.62 128.89 20.54 129.67 C 19.03 130.32 17.09 130.75 16.65 132.60 C 10.95 135.93 7.05 141.36 3.14 146.53 C 2.99 148.36 3.23 150.39 1.92 151.89 C 3.75 151.76 4.79 153.19 5.36 154.72 C 5.90 155.00 6.96 155.57 7.50 155.85 C 7.98 155.94 8.95 156.11 9.44 156.19 C 11.49 157.62 14.29 157.41 16.47 156.39 C 17.75 155.62 19.08 154.92 20.44 154.30 C 25.12 152.33 28.71 148.72 32.60 145.60 C 33.71 143.36 36.70 142.79 37.36 140.23 C 38.45 139.74 39.54 139.25 40.63 138.77 C 42.49 135.40 45.68 133.02 47.73 129.76 C 52.54 125.82 55.10 119.56 60.77 116.63 C 61.25 115.54 61.74 114.45 62.22 113.36 C 64.89 112.46 65.63 109.40 67.73 107.76 C 69.56 106.29 70.56 104.20 71.31 102.03 C 71.73 102.02 72.57 101.98 72.99 101.97 C 72.99 101.53 73.00 100.65 73.00 100.21 C 73.65 100.00 74.95 99.58 75.60 99.38 C 75.05 98.76 74.48 98.16 73.90 97.57 Z" />
<path fill="#000000" opacity="1.00" d=" M 316.43 43.60 C 317.69 43.21 318.99 42.96 320.31 42.84 C 320.13 44.91 318.54 46.18 316.55 46.35 C 315.51 46.58 314.52 46.93 313.57 47.40 C 312.25 47.77 310.90 48.02 309.57 48.29 C 307.99 49.15 306.17 49.01 304.44 49.09 C 303.47 49.71 302.50 50.33 301.54 50.96 C 298.21 51.02 294.88 51.06 291.56 50.90 C 290.92 50.58 289.65 49.94 289.02 49.62 C 289.02 49.06 289.02 47.94 289.02 47.38 C 289.65 47.06 290.92 46.41 291.56 46.08 C 293.57 46.06 295.77 45.57 297.57 46.79 C 298.03 46.89 298.96 47.10 299.43 47.20 C 300.64 48.22 302.32 48.24 303.57 47.25 C 304.92 47.04 306.29 46.82 307.57 46.29 C 308.92 46.03 310.32 45.86 311.57 45.23 C 312.04 45.12 312.98 44.90 313.44 44.78 C 314.45 44.42 315.44 44.03 316.43 43.60 Z" />
<path fill="#000000" opacity="1.00" d=" M 147.52 43.77 C 148.34 45.00 149.15 46.23 149.97 47.45 C 149.98 48.62 150.00 49.79 150.01 50.97 C 148.53 51.00 147.05 51.03 145.57 51.11 C 144.00 53.19 141.46 51.09 141.94 49.04 C 141.40 46.79 143.82 45.73 145.68 45.86 C 146.14 45.33 147.06 44.29 147.52 43.77 Z" />
<path fill="#000000" opacity="1.00" d=" M 226.78 95.24 C 229.00 94.88 231.54 93.02 233.57 94.85 C 234.27 94.92 235.66 95.06 236.36 95.13 C 235.86 96.92 232.59 98.86 235.00 100.51 C 234.65 100.90 233.97 101.67 233.62 102.05 C 230.87 102.48 227.72 101.95 227.64 98.56 C 227.32 97.46 227.03 96.36 226.78 95.24 Z" />
</g>
</svg>
