<?xml version="1.0" encoding="UTF-8" standalone="no"?>
<!-- Created with Inkscape (http://www.inkscape.org/) -->

<svg
   xmlns:dc="http://purl.org/dc/elements/1.1/"
   xmlns:cc="http://creativecommons.org/ns#"
   xmlns:rdf="http://www.w3.org/1999/02/22-rdf-syntax-ns#"
   xmlns:svg="http://www.w3.org/2000/svg"
   xmlns="http://www.w3.org/2000/svg"
   xmlns:sodipodi="http://sodipodi.sourceforge.net/DTD/sodipodi-0.dtd"
   xmlns:inkscape="http://www.inkscape.org/namespaces/inkscape"
   width="1000"
   height="400"
   id="svg2"
   version="1.1"
   inkscape:version="0.47 r22583"
   sodipodi:docname="Latin alphabet A with acute.svg">
  <defs
     id="defs4">
    <inkscape:perspective
       sodipodi:type="inkscape:persp3d"
       inkscape:vp_x="0 : 526.18109 : 1"
       inkscape:vp_y="0 : 1000 : 0"
       inkscape:vp_z="744.09448 : 526.18109 : 1"
       inkscape:persp3d-origin="372.04724 : 350.78739 : 1"
       id="perspective10" />
  </defs>
  <sodipodi:namedview
     id="base"
     pagecolor="#ffffff"
     bordercolor="#666666"
     borderopacity="1.0"
     inkscape:pageopacity="0.0"
     inkscape:pageshadow="2"
     inkscape:zoom="1.115"
     inkscape:cx="500"
     inkscape:cy="200"
     inkscape:document-units="px"
     inkscape:current-layer="layer1"
     showgrid="true"
     gridtolerance="10"
     inkscape:window-width="1366"
     inkscape:window-height="693"
     inkscape:window-x="-8"
     inkscape:window-y="17"
     inkscape:window-maximized="1">
    <inkscape:grid
       type="xygrid"
       id="grid2816"
       empspacing="1"
       visible="true"
       enabled="true"
       snapvisiblegridlinesonly="true"
       spacingx="10000px" />
  </sodipodi:namedview>
  <metadata
     id="metadata7">
    <rdf:RDF>
      <cc:Work
         rdf:about="">
        <dc:format>image/svg+xml</dc:format>
        <dc:type
           rdf:resource="http://purl.org/dc/dcmitype/StillImage" />
        <dc:title></dc:title>
      </cc:Work>
    </rdf:RDF>
  </metadata>
  <g
     inkscape:label="Layer 1"
     inkscape:groupmode="layer"
     id="layer1"
     transform="translate(0,-652.36218)">
    <g
       style="font-size:420.22943115px;font-style:normal;font-variant:normal;font-weight:normal;font-stretch:normal;text-align:start;line-height:125%;writing-mode:lr-tb;text-anchor:start;fill:#000000;fill-opacity:1;stroke:none;font-family:Helvetica;-inkscape-font-specification:Helvetica"
       id="text2818">
      <path
         d="m 33.240805,1028.2423 0,-300.80875 217.501565,0 0,35.49789 -177.694676,0 0,92.13038 166.409216,0 0,35.29271 -166.409216,0 0,102.38988 184.671136,0 0,35.49789 z m 53.96501,-319.68625 0,-42.06398 38.575745,0 0,42.06398 z m 76.535925,0 0,-42.06398 38.57575,0 0,42.06398 z"
         style=""
         id="path2860" />
      <path
         d="m 457.57405,958.06728 38.16536,4.71937 c -6.01912,22.29737 -17.16777,39.60175 -33.44599,51.91315 -16.27859,12.3114 -37.07117,18.4671 -62.37781,18.4671 -31.87296,0 -57.14552,-9.815 -75.81776,-29.4448 -18.67233,-19.62983 -28.00847,-47.15948 -28.00845,-82.58905 -2e-5,-36.6605 9.43872,-65.1135 28.31624,-85.3591 18.87743,-20.24522 43.36343,-30.36792 73.45807,-30.36815 29.13686,2.3e-4 52.93889,9.91774 71.40617,29.75258 18.46691,19.83522 27.70046,47.74105 27.70067,83.71758 -2.1e-4,2.1888 -0.0686,5.47184 -0.20519,9.84913 l -162.5106,0 c 1.36788,23.93892 8.13915,42.26922 20.31383,54.99096 12.17453,12.72182 27.35858,19.08275 45.55221,19.08265 13.54242,10e-5 25.10145,-3.55657 34.67714,-10.66986 9.57538,-7.11321 17.1674,-18.46706 22.77611,-34.06156 z m -121.26738,-59.71034 121.67776,0 c -1.6417,-18.33017 -6.29267,-32.0779 -13.95293,-41.24322 -11.76439,-14.22633 -27.01684,-21.33958 -45.75741,-21.33977 -16.96249,1.9e-4 -31.22319,5.67711 -42.78215,17.03078 -11.5591,11.35402 -17.95419,26.53807 -19.18527,45.55221 z m 2.87266,-130.70612 0,-42.06398 38.57575,0 0,42.06398 z m 76.53592,0 0,-42.06398 38.57575,0 0,42.06398 z"
         style=""
         id="path2862" />
    </g>
    <g
       style="font-size:431.29214478px;font-style:normal;font-variant:normal;font-weight:normal;font-stretch:normal;text-align:start;line-height:125%;writing-mode:lr-tb;text-anchor:start;fill:#000000;fill-opacity:1;stroke:none;font-family:Times New Roman;-inkscape-font-specification:Times New Roman"
       id="text2822">
      <path
         d="m 620.31258,756.38341 0,112.87724 62.75638,0 c 16.2856,1.6e-4 27.16617,-2.45675 32.64174,-7.37072 7.30032,-6.45798 11.37176,-17.82993 12.21432,-34.11588 l 7.7919,0 0,99.39936 -7.7919,0 c -1.96572,-13.89895 -3.93124,-22.81399 -5.89657,-26.74516 -2.52729,-4.91368 -6.66893,-8.77453 -12.42492,-11.58256 -5.75635,-2.80775 -14.6012,-4.21169 -26.53457,-4.21183 l -62.75638,0 0,94.13456 c -9e-5,12.63555 0.56149,20.32214 1.68473,23.05978 1.12307,2.7377 3.08859,4.9139 5.89658,6.5284 2.80779,1.6145 8.14278,2.4218 16.00498,2.4218 l 48.43613,0 c 16.1452,0 27.86813,-1.1232 35.16884,-3.3695 7.30031,-2.2463 14.32004,-6.6687 21.05919,-13.26727 8.70423,-8.70443 17.61928,-21.83131 26.74516,-39.38068 l 8.42368,0 -24.63925,71.60125 -220.0685,0 0,-7.7919 10.10841,0 c 6.73891,0 13.12686,-1.6145 19.16386,-4.8436 4.49258,-2.2463 7.54616,-5.6158 9.16074,-10.1084 1.61449,-4.49264 2.42176,-13.68847 2.42181,-27.58757 l 0,-185.53144 c -5e-5,-18.11065 -1.82518,-29.272 -5.47539,-33.48411 -5.05424,-5.6155 -13.47791,-8.42339 -25.27102,-8.42367 l -10.10841,0 0,-7.7919 220.0685,0 3.15888,62.54578 -8.21308,0 c -2.94851,-15.02198 -6.21268,-25.34097 -9.79253,-30.957 -3.58027,-5.61552 -8.88016,-9.89755 -15.89968,-12.8461 -5.61598,-2.10565 -15.51379,-3.15861 -29.69346,-3.15888 z m 79.60373,-89.92273 c 6.31758,3.6e-4 11.68766,2.24667 16.11027,6.73894 4.42224,4.49298 6.63345,9.89816 6.63365,16.21557 -2e-4,6.31809 -2.21141,11.68818 -6.63365,16.11028 -4.42261,4.42275 -9.79269,6.63396 -16.11027,6.63365 -6.31792,3.1e-4 -11.72311,-2.2109 -16.21558,-6.63365 -4.49277,-4.4221 -6.73908,-9.79219 -6.73894,-16.11028 -1.4e-4,-6.31741 2.24617,-11.72259 6.73894,-16.21557 4.49247,-4.49227 9.89766,-6.73858 16.21558,-6.73894 z m -74.33893,0 c 6.45805,3.6e-4 11.89833,2.24667 16.32087,6.73894 4.42231,4.49298 6.63352,9.89816 6.63364,16.21557 -1.2e-4,6.31809 -2.24643,11.68818 -6.73894,16.11028 -4.49273,4.42275 -9.82772,6.63396 -16.00498,6.63365 -6.31785,3.1e-4 -11.72303,-2.2109 -16.21558,-6.63365 -4.4927,-4.4221 -6.73901,-9.79219 -6.73894,-16.11028 -7e-5,-6.31741 2.21114,-11.72259 6.63365,-16.21557 4.42234,-4.49227 9.79243,-6.73858 16.11028,-6.73894 z"
         style=""
         id="path2855" />
      <path
         d="m 839.7493,906.11423 c -0.14044,28.64058 6.80908,51.10369 20.84859,67.38939 14.03938,16.28581 30.53573,24.42869 49.48909,24.42866 12.63539,3e-5 23.62125,-3.47473 32.95763,-10.4243 9.33608,-6.94948 17.16307,-18.84791 23.48099,-35.69532 l 6.52835,4.21184 c -2.94846,19.23411 -11.51252,36.74831 -25.69221,52.5427 -14.17999,15.7944 -31.93989,23.6915 -53.27974,23.6916 -23.16518,-10e-5 -42.9959,-9.0204 -59.4922,-27.0611 -16.49639,-18.04066 -24.74456,-42.2938 -24.74455,-72.75949 -10e-6,-32.9926 8.45875,-58.71988 25.37632,-77.18192 16.91749,-18.4617 38.15215,-27.69263 63.70404,-27.69283 21.62064,2e-4 39.38054,7.12522 53.27975,21.37507 13.89889,14.25022 20.84841,33.30876 20.84859,57.1757 z m 0,-12.21433 89.29095,0 c -0.70211,-12.35458 -2.17625,-21.05904 -4.42243,-26.11339 -3.50999,-7.86193 -8.73968,-14.03929 -15.68909,-18.53209 -6.94964,-4.49244 -14.21506,-6.73875 -21.79626,-6.73894 -11.65283,1.9e-4 -22.07712,4.52791 -31.27289,13.58318 -9.1959,9.05561 -14.56599,21.65601 -16.11028,37.80124 z m 95.18752,-149.09904 c 6.31761,2.8e-4 11.6877,2.24659 16.11028,6.73894 4.42227,4.49289 6.63348,9.89808 6.63364,16.21557 -1.6e-4,6.31801 -2.21137,11.68809 -6.63364,16.11028 -4.42258,4.42266 -9.79267,6.63388 -16.11028,6.63364 -6.31789,2.4e-4 -11.72307,-2.21098 -16.21557,-6.63364 -4.49275,-4.42219 -6.73906,-9.79227 -6.73894,-16.11028 -1.2e-4,-6.31749 2.24619,-11.72268 6.73894,-16.21557 4.4925,-4.49235 9.89768,-6.73866 16.21557,-6.73894 z m -74.33893,0 c 6.45808,2.8e-4 11.89836,2.24659 16.32087,6.73894 4.42234,4.49289 6.63356,9.89808 6.63365,16.21557 -9e-5,6.31801 -2.2464,11.68809 -6.73894,16.11028 -4.49271,4.42266 -9.8277,6.63388 -16.00499,6.63364 -6.31781,2.4e-4 -11.723,-2.21098 -16.21557,-6.63364 -4.49267,-4.42219 -6.73898,-9.79227 -6.73894,-16.11028 -4e-5,-6.31749 2.21117,-11.72268 6.63365,-16.21557 4.42237,-4.49235 9.79246,-6.73866 16.11027,-6.73894 z"
         style=""
         id="path2857" />
    </g>
  </g>
</svg>
