<?xml version="1.0" encoding="UTF-8" standalone="no"?>
<!-- Created with Inkscape (http://www.inkscape.org/) -->
<svg
   xmlns:svg="http://www.w3.org/2000/svg"
   xmlns="http://www.w3.org/2000/svg"
   version="1.0"
   width="453.26837"
   height="182.7164"
   id="svg2">
  <defs
     id="defs5" />
  <path
     d="M 350.93124,181.39964 C 350.62812,180.60975 351.36267,178.71436 352.56356,177.18768 C 355.28111,173.73287 358.51505,165.32351 358.65961,161.33582 C 358.75393,158.73412 358.43645,158.35703 356.26837,158.49558 C 354.89337,158.58344 350.73314,160.06328 347.02341,161.7841 C 341.6486,164.27729 338.77516,164.95577 332.87815,165.12412 C 324.64275,165.35923 321.26837,163.63181 321.26837,159.18083 C 321.26837,157.89108 320.88751,156.83582 320.42201,156.83582 C 319.27903,156.83582 312.89408,160.00289 312.26837,160.8802 C 311.24476,162.3154 300.71711,163.87669 296.32127,163.24521 C 290.94425,162.47278 288.26837,160.43882 288.26837,157.12415 L 288.26837,154.72246 L 284.01837,157.34022 C 279.13317,159.93894 274.28438,162.88036 269.13316,164.91085 C 266.39739,165.49064 264.25279,164.7848 264.16241,163.19711 C 263.83743,154.83757 267.62631,146.79619 271.6187,139.61895 C 285.02236,119.70961 297.53476,99.80593 315.51837,83.518157 C 316.48087,83.177397 317.94337,83.157607 318.76837,83.474187 C 323.0575,89.321459 309.32796,102.80932 305.63369,108.05495 C 299.75891,113.68139 297.03243,115.88933 294.03286,117.44943 C 287.08424,123.6824 283.0011,132.98427 278.48671,141.11995 C 275.99904,146.20946 274.20604,150.56637 273.30201,153.71852 L 272.34041,157.07141 L 275.48878,156.44174 C 277.22037,156.09542 279.3771,155.14241 280.28149,154.32394 C 285.93008,151.19336 290.65514,146.80041 294.3657,141.38865 C 295.28347,139.29037 295.79932,138.42071 300.42119,131.17968 C 305.56962,121.70527 312.20077,112.83649 319.51837,104.83294 C 323.5187,101.80121 326.139,97.784062 331.58937,96.835817 C 332.65491,96.835817 333.00046,100.64691 331.88578,101.33582 C 331.0921,106.6161 327.30376,111.34978 324.11479,115.86492 C 315.8206,125.13329 307.86862,130.21105 305.77375,134.03208 C 298.59899,147.11882 297.26837,150.1134 297.26837,153.17351 C 297.26837,155.39545 297.83093,156.83772 298.85016,157.22883 C 305.88718,158.67653 320.7229,155.79821 322.50944,148.08284 C 320.15107,147.29672 321.2237,144.09696 324.26837,142.83582 C 325.91837,142.15237 327.26837,141.22992 327.26837,140.78593 C 327.26837,140.34194 327.83146,139.38403 328.51968,138.65725 C 329.20791,137.93046 330.88675,135.67365 332.25045,133.6421 C 333.61415,131.61056 335.63856,129.7042 336.74914,129.40576 C 340.08886,128.50827 342.26837,128.76362 342.26837,130.05239 C 342.26837,132.4923 338.96573,139.83582 337.86841,139.83582 C 337.24788,139.83582 335.96035,141.63582 335.00724,143.83582 C 334.05413,146.03582 332.64612,147.83582 331.87833,147.83582 C 330.276,147.83582 329.26837,149.95922 329.26837,153.33582 C 329.26837,156.65553 330.26879,158.83582 331.79203,158.83582 C 338.13606,162.27209 345.71937,158.49466 352.11504,155.85325 C 360.18372,151.97511 365.03107,151.40516 369.06767,153.85996 C 370.85464,154.94668 372.7734,155.83582 373.33157,155.83582 C 373.88974,155.83582 376.16501,154.03532 378.38773,151.83471 C 394.53986,137.84893 435.09715,121.43904 453.26837,134.60298 C 453.26837,135.53096 452.5511,135.41195 450.65458,134.1693 C 447.48679,132.09369 431.07565,131.67757 424.76837,133.51294 C 422.56837,134.15312 417.95587,135.45891 414.51837,136.41469 C 405.37042,139.35708 396.65628,143.8931 388.51837,149.25939 C 387.55587,149.56648 383.95544,152.5218 380.51742,155.82678 C 377.07939,159.13175 373.92939,161.83889 373.51742,161.84265 C 373.10544,161.84641 371.69726,163.42229 370.38813,165.34461 C 366.85027,170.53956 357.78629,179.85448 354.72242,181.44404 C 351.44015,183.1469 351.60245,183.1488 350.93124,181.39964 z M 324.56505,109.3044 C 326.54781,106.58017 325.83246,105.9977 323.35226,108.31688 C 322.48112,109.13146 320.59541,110.81896 319.1618,112.06688 C 317.72818,113.3148 315.77847,115.91082 314.8291,117.83582 L 313.10298,121.33582 L 316.68567,117.65257 C 320.45593,114.18815 322.15002,112.29182 324.56505,109.3044 z M 306.65805,99.908717 C 305.93001,99.151317 300.26837,105.15952 300.26837,106.68952 C 300.26837,107.5177 301.76522,106.4448 303.66848,104.25243 C 305.53854,102.09829 306.88384,100.14363 306.65805,99.908717 z M 166.7373,169.78555 C 165.95578,168.52102 168.96463,162.90937 170.31529,161.83582 C 171.40895,160.49057 172.89696,157.29536 174.28587,155.15479 C 176.36762,151.89181 177.6552,148.31665 179.26837,144.83582 C 179.26837,143.02339 177.48098,143.79018 174.60638,146.83582 C 159.96684,157.03736 143.57104,164.70336 125.88318,167.60688 C 119.78817,167.99524 118.52084,167.78567 117.04144,166.14478 C 113.9836,162.75312 113.57597,156.772 117.06006,152.72075 C 123.70671,141.67875 137.81627,132.60325 151.16961,134.30447 C 153.43166,135.02242 154.07375,137.77054 152.01837,137.93714 C 151.33087,137.99286 149.36718,137.96367 147.65462,137.87226 C 138.54977,137.60196 128.31242,144.96725 124.70836,153.35379 C 123.00274,157.81989 123.30456,157.67213 125.07687,159.87204 C 128.05887,163.57348 135.39425,162.56796 139.95327,160.65398 C 141.50158,160.00396 143.50373,159.39291 144.40251,159.29607 C 160.51163,154.01272 177.30519,143.64174 189.07294,131.51461 C 191.23632,128.85339 192.99852,125.93522 195.24059,123.25249 C 197.614,120.45132 199.48642,118.32964 201.26837,115.85438 C 201.26837,114.90789 212.16192,102.95368 218.26837,97.199157 C 224.59478,91.237357 225.61017,90.369107 229.37653,87.700667 C 231.21236,86.399997 233.30604,84.788457 234.02916,84.119467 C 235.85669,82.428737 245.15004,77.835817 246.74354,77.835817 C 249.0108,77.835817 248.86494,79.736647 247.9528,82.858497 C 244.21641,94.936476 223.22173,109.35438 215.42866,115.83582 C 210.12681,120.24003 206.99225,123.07318 203.87536,125.83582 C 199.31602,128.46639 196.15578,132.23137 192.79828,136.02014 C 189.83623,140.78858 186.39375,145.40883 183.70392,150.33582 C 180.4546,155.7477 180.84692,155.9638 179.01837,158.74821 C 177.99651,159.82109 178.21613,159.92476 180.22173,159.31628 C 181.57108,158.9069 183.29072,157.95633 184.04316,157.20389 C 187.77197,154.18363 191.69141,151.13343 195.13403,147.58684 C 195.8119,146.32023 198.27176,144.07856 200.60039,142.60535 C 202.92902,141.13215 205.91038,138.78134 207.22563,137.38131 C 209.76495,134.67833 214.26837,133.91643 214.26837,136.1898 C 214.26837,136.93448 213.1374,138.76411 211.75511,140.25563 C 207.94432,144.36754 201.36239,157.83582 203.1637,157.83582 C 203.52651,157.83582 204.85259,157.11492 206.11053,156.23382 C 209.13087,154.1183 210.19411,155.29834 207.42869,157.69677 C 206.24052,158.72727 205.26837,160.08013 205.26837,160.70312 C 205.26837,162.32213 210.52912,162.10214 213.90406,160.34198 C 215.47943,159.52037 217.50773,158.84537 218.41138,158.84198 C 220.94783,157.51636 223.17853,155.43806 225.76837,153.83582 C 227.55386,153.1882 228.68028,151.80292 230.66701,151.00863 C 232.88438,150.20682 234.27753,148.93544 234.67527,147.35074 C 235.40708,144.43496 241.79537,140.96282 243.42673,142.59418 C 244.14892,143.31637 243.88238,144.22181 242.55765,145.54654 C 238.80789,149.2963 237.26837,152.33456 237.26837,155.985 C 237.26837,158.70774 237.73204,159.78541 239.01837,160.0524 C 246.6451,159.30262 254.34139,154.16301 260.25346,149.35169 C 262.57252,146.88317 266.26837,145.91822 266.26837,147.78125 C 266.26837,148.30124 265.19585,149.31374 263.88498,150.03125 C 253.46266,156.49569 243.97093,169.26118 230.41467,164.48942 C 229.16123,163.4981 229.20054,159.34095 230.50594,154.83582 C 230.74499,154.01082 230.75183,153.67332 230.52114,154.08582 C 228.46845,155.27031 226.06763,156.07397 224.26837,157.83582 C 223.19426,159.08669 221.81224,159.78036 220.02386,160.80842 C 219.09491,161.89336 217.0824,163.04554 215.55161,163.36883 C 214.02083,163.69212 211.99615,164.37372 211.05232,164.8835 C 205.85516,167.43249 201.02252,166.28099 196.76837,164.83582 C 195.09027,163.59838 194.59379,159.23843 196.22139,158.66915 C 196.74556,158.48582 197.47942,156.41485 197.85221,154.06701 C 198.43826,150.37598 198.30927,149.88289 196.89919,150.42399 C 195.63582,152.10289 193.83784,152.23054 192.1017,153.69646 C 190.32469,155.90758 187.12748,158.54328 180.5575,163.86142 C 178.3887,165.61697 169.20415,170.83582 168.28338,170.83582 C 167.79004,170.83582 167.09431,170.3632 166.7373,169.78555 z M 201.26837,146.09093 C 201.26837,145.81593 200.59337,146.15113 199.76837,146.83582 C 198.94337,147.52051 198.26837,148.30571 198.26837,148.58071 C 198.26837,148.85571 198.94337,148.52051 199.76837,147.83582 C 200.59337,147.15113 201.26837,146.36593 201.26837,146.09093 z M 215.3178,112.08582 C 217.92025,109.47332 221.78626,105.7212 223.90894,103.74777 C 230.43278,97.574364 234.53378,92.839691 239.6093,86.835817 C 241.94409,82.883327 239.85951,82.756767 235.49153,86.585817 C 233.76614,88.098317 230.46098,90.910817 228.14672,92.835817 C 221.07193,97.58594 214.70963,107.92478 212.01837,110.53613 C 210.79114,111.32125 204.33912,119.13013 202.88865,121.58582 C 202.48258,122.27332 202.62689,122.83582 203.20935,122.83582 C 208.08219,119.29858 211.36836,115.89489 215.3178,112.08582 z M 13.165963,167.84781 C 7.4007355,167.11018 5.3745565,165.77803 1.9195415,160.45367 C -2.594596,150.67827 1.751368,140.66295 6.7909645,132.13464 C 7.8785365,130.09899 10.343369,126.79078 12.268369,124.78305 C 14.193369,122.77533 17.192469,119.49086 18.933039,117.48423 C 22.399996,114.06513 25.766105,110.93739 29.572599,107.84045 C 32.45074,105.93756 35.000965,103.56737 37.939099,101.77091 C 49.197721,95.70942 60.746996,85.876204 74.07981,91.874777 C 77.4603,95.024187 76.85867,106.42169 73.02764,111.80728 C 71.70888,113.66116 71.00622,113.97367 70.12899,113.09644 C 69.25176,112.21921 69.3496,111.36079 70.53263,109.55527 C 74.806831,100.24922 67.908115,96.194938 58.854509,95.830201 C 50.472637,98.465409 35.946809,106.39225 28.155549,113.70733 C 26.029979,115.703 23.723309,117.83526 23.029619,118.44568 C 17.653979,123.17608 11.628376,132.8242 8.7118495,141.3711 C 7.5309145,144.83184 7.5426415,146.09678 8.7942155,150.25544 C 10.383456,155.53609 11.707923,156.95488 17.768369,159.86871 C 22.186329,161.99285 30.529439,162.44746 34.862209,160.80014 C 36.360429,160.23052 40.102219,159.3707 43.177299,158.88944 C 57.091169,156.20154 69.442053,149.03942 81.84798,142.41132 C 84.757098,140.64752 84.745963,141.23305 90.26837,136.93365 C 106.76314,126.81083 100.95406,130.12097 109.97062,123.09979 C 116.63153,118.09407 123.63289,114.02382 129.73891,108.33582 C 131.46253,106.68582 134.5454,104.06884 136.58972,102.52032 C 140.25059,99.747307 141.65042,98.515127 149.95963,90.751757 C 152.26482,88.597987 154.51482,86.831187 154.95963,86.825537 C 155.40444,86.819877 158.05954,84.682377 160.85987,82.075537 C 163.66019,79.468687 167.48519,76.046447 169.35987,74.470537 C 171.23454,72.894637 175.98567,68.732133 179.91793,65.220533 C 183.85018,61.708943 187.29945,58.835813 187.58298,58.835813 C 188.09796,58.835813 189.2462,57.896263 196.76837,51.319783 C 201.32995,48.134787 205.56645,44.599707 210.01837,41.252033 C 213.18087,39.098113 215.91837,36.998313 216.1017,36.585813 C 218.87496,35.379567 221.34699,33.281383 224.01837,31.650843 C 226.63087,30.308993 231.91837,27.247953 235.76837,24.848543 C 261.86815,8.5825329 290.2253,-1.1600471 307.77079,0.1108729 C 318.01831,0.8531629 324.18131,4.3917412 327.26837,8.8710029 C 329.96911,13.451545 330.63155,17.882848 330.63009,23.191663 C 330.06598,36.901639 323.67213,50.056838 314.04613,59.835813 C 313.56987,56.646978 317.27305,50.039476 318.74244,45.835813 C 320.91254,41.794683 323.02046,31.706953 322.75251,26.645133 C 321.98317,16.992824 317.05958,11.0045 308.63268,7.3419729 C 304.74489,5.3143529 289.46154,5.3104329 284.61413,7.3358129 C 278.29168,9.3557612 271.80944,10.851739 265.59941,13.309513 C 264.04234,14.120053 261.19337,15.421873 259.26837,16.202453 C 257.34337,16.983033 255.09337,17.899823 254.26837,18.239763 C 253.44337,18.579703 251.41837,19.747933 249.76837,20.835813 C 248.11837,21.923703 246.09337,23.119503 245.26837,23.493163 C 244.44337,23.866813 241.88729,25.446763 239.58819,27.004173 C 237.18581,29.299937 233.66412,29.246675 231.26837,31.335813 C 225.94597,34.166109 220.50576,37.303954 215.96272,41.340593 C 213.86961,43.262963 211.80186,44.835813 211.36771,44.835813 C 210.93356,44.835813 209.76386,45.735813 208.76837,46.835813 C 206.86667,48.139372 204.99282,49.556791 203.33009,50.835813 C 202.81403,50.835813 200.91375,52.185813 199.10723,53.835813 C 191.318,60.528596 182.62949,66.38386 174.91532,73.085817 C 173.56447,74.323317 170.31284,77.135817 167.68948,79.335817 C 165.06611,81.535817 160.44281,85.698317 157.41546,88.585817 C 154.38812,91.473317 151.53747,93.835817 151.08068,93.835817 C 150.6239,93.835817 148.93814,95.073317 147.33456,96.585817 C 143.60625,100.10237 140.34691,102.83582 139.88214,102.83582 C 139.68228,102.83582 137.49939,104.74832 135.03127,107.08582 C 130.93847,111.76572 125.95673,115.96576 120.84489,119.41234 C 111.66281,126.41656 105.12915,130.83426 93.26837,138.73799 C 89.109019,142.09168 92.894003,138.74189 84.556632,144.88212 C 79.221003,148.73471 76.219005,150.29296 70.26837,154.03311 C 60.724899,158.97163 52.934722,162.26265 43.983329,165.15509 C 42.215099,165.44653 38.723719,166.13799 36.224699,166.69165 C 29.574929,168.16493 19.566599,168.66675 13.165963,167.84781 z M 245.94846,131.37038 C 244.55976,130.68232 243.67592,129.20947 243.5137,127.31302 C 243.2944,124.74927 243.77866,124.09416 247.0008,122.59565 C 250.70537,120.87278 250.76676,120.87967 253.17546,123.28836 C 255.21904,125.33195 255.40153,125.97044 254.31591,127.27853 C 253.44409,128.32902 253.38877,128.83582 254.14593,128.83582 C 254.76327,128.83582 255.26837,129.46159 255.26837,130.22641 C 255.26837,132.02629 248.85989,132.8129 245.94846,131.37038 z"
     id="path2384"
     style="fill:#000000" />
</svg>
