<?xml version="1.0" encoding="UTF-8"?>
<!DOCTYPE svg PUBLIC "-//W3C//DTD SVG 1.1//EN" "http://www.w3.org/Graphics/SVG/1.1/DTD/svg11.dtd">
<!-- Creator: CorelDRAW -->
<svg xmlns="http://www.w3.org/2000/svg" xml:space="preserve" width="205.74mm" height="91.44mm" style="shape-rendering:geometricPrecision; text-rendering:geometricPrecision; image-rendering:optimizeQuality; fill-rule:evenodd; clip-rule:evenodd"
viewBox="0 0 205.74 91.44"
 xmlns:xlink="http://www.w3.org/1999/xlink">
 <defs>
  <style type="text/css">
   <![CDATA[
    .fil0 {fill:#1F1A17;fill-rule:nonzero}
   ]]>
  </style>
 </defs>
 <g id="Layer_x0020_1">
  <metadata id="CorelCorpID_0Corel-Layer"/>
  <path class="fil0" d="M183.001 34.0472c-1.8345,0 -2.7517,-1.0231 -2.7517,-3.0692 0,-1.1524 0.3645,-2.1872 1.0936,-3.1162 0.7408,-0.929 1.6581,-1.3993 2.7634,-1.3993 1.7874,0 2.6811,0.9172 2.6811,2.7634 0,1.2817 -0.3645,2.4106 -1.0818,3.3749 -0.7291,0.9642 -1.6228,1.4464 -2.7046,1.4464z"/>
  <path class="fil0" d="M171.007 34.1881c-1.8462,0 -2.7635,-1.0231 -2.7635,-3.0692 0,-1.1524 0.3646,-2.1872 1.1054,-3.1162 0.7291,-0.929 1.6581,-1.3993 2.7517,-1.3993 1.7992,0 2.6929,0.9172 2.6929,2.7634 0,1.2817 -0.3646,2.4106 -1.0819,3.3749 -0.7291,0.9642 -1.6345,1.4464 -2.7046,1.4464z"/>
  <path class="fil0" d="M132.605 17.7224c-2.1872,0 -3.2808,-1.1524 -3.2808,-3.4455 0,-1.1289 0.3998,-2.1049 1.2112,-2.9398 0.7996,-0.8467 1.7639,-1.2583 2.8927,-1.2583 2.1755,0 3.2691,1.0349 3.2691,3.128 0,1.223 -0.388,2.2813 -1.1524,3.175 -0.7643,0.8937 -1.7521,1.3406 -2.9398,1.3406z"/>
  <path class="fil0" d="M145.963 17.7224c-2.1519,0 -3.2338,-1.1524 -3.2338,-3.4455 0,-1.1054 0.3998,-2.0814 1.1995,-2.9281 0.8114,-0.8466 1.7639,-1.27 2.8692,-1.27 2.199,0 3.3044,1.0349 3.3044,3.128 0,1.223 -0.3881,2.2813 -1.1524,3.175 -0.7761,0.8937 -1.7639,1.3406 -2.9869,1.3406z"/>
  <path class="fil0" d="M70.104 34.0452c-1.0348,0 -1.9167,-0.3646 -2.6576,-1.1054 -0.729,-0.7291 -1.0936,-1.6228 -1.0936,-2.6576 0,-1.023 0.3646,-1.9167 1.0936,-2.6458 0.7409,-0.7409 1.6228,-1.1054 2.6576,-1.1054 1.0584,0 1.9403,0.3645 2.6694,1.0819 0.7291,0.729 1.0818,1.6227 1.0818,2.6693 0,1.0348 -0.3645,1.9285 -1.0936,2.6576 -0.7408,0.7408 -1.6228,1.1054 -2.6576,1.1054z"/>
  <path class="fil0" d="M84.6738 34.0452c-1.0349,0 -1.9168,-0.3646 -2.6459,-1.1054 -0.7408,-0.7291 -1.1053,-1.6228 -1.1053,-2.6576 0,-1.0466 0.3645,-1.9403 1.0818,-2.6693 0.7291,-0.7174 1.611,-1.0819 2.6694,-1.0819 1.0583,0 1.952,0.3645 2.6693,1.0819 0.7291,0.729 1.0936,1.6227 1.0936,2.6693 0,1.0348 -0.3763,1.9285 -1.1053,2.6576 -0.7409,0.7408 -1.6228,1.1054 -2.6576,1.1054z"/>
  <path class="fil0" d="M25.1907 17.6362c-1.0701,0 -1.9991,-0.3763 -2.7517,-1.1171 -0.7643,-0.7526 -1.1406,-1.6698 -1.1406,-2.7399 0,-1.0819 0.3763,-1.9991 1.1406,-2.7635 0.7526,-0.7526 1.6816,-1.1289 2.7517,-1.1289 1.0818,0 1.9991,0.3763 2.7399,1.1289 0.7526,0.7644 1.1171,1.6816 1.1171,2.7635 0,1.0701 -0.3645,1.9873 -1.1171,2.7399 -0.7408,0.7408 -1.6581,1.1171 -2.7399,1.1171z"/>
  <path class="fil0" d="M42.1828 17.6362c-1.0818,0 -1.9991,-0.3763 -2.7634,-1.1171 -0.7526,-0.7526 -1.1289,-1.6698 -1.1289,-2.7399 0,-1.0819 0.3763,-1.9991 1.1289,-2.7635 0.7643,-0.7526 1.6816,-1.1289 2.7634,-1.1289 1.0701,0 1.9873,0.3763 2.7399,1.1289 0.7409,0.7644 1.1172,1.6816 1.1172,2.7635 0,1.0701 -0.3763,1.9873 -1.1172,2.7399 -0.7526,0.7408 -1.6698,1.1171 -2.7399,1.1171z"/>
  <path class="fil0" d="M11.748 67.241l0.9995 -0.6232c3.763,4.5273 8.7959,6.7851 15.0871,6.7851 3.3044,0 6.4324,-0.6468 9.3722,-1.9403 2.9398,-1.3053 5.3622,-3.0457 7.2672,-5.2446 1.905,-2.1873 3.2103,-4.4686 3.9041,-6.8322 0.7055,-2.3636 1.1406,-4.9977 1.2935,-7.8904l-8.4667 0.1763 -7.1026 0.2c-2.2225,0.047 -3.5866,0.1293 -4.0804,0.2587 -0.4939,0.1293 -0.8937,0.3175 -1.1877,0.5644 -0.3058,0.2587 -0.5998,0.7173 -0.8937,1.3876 -0.3058,0.6585 -0.5645,1.8932 -0.7997,3.6806l-0.2704 0.3058 -0.9996 0 -0.2822 -0.2705c0.0471,-2.4341 0.0941,-4.8566 0.1411,-7.2672 -0.047,-2.4107 -0.094,-4.8331 -0.1411,-7.2672l0.2822 -0.2823 0.9996 0 0.2704 0.3175c0.1647,1.2583 0.3999,2.3872 0.7056,3.375 0.3175,0.9877 0.7526,1.6227 1.3288,1.9285 0.5762,0.294 1.4817,0.4468 2.7281,0.4468l0.8232 -0.0353c0.6585,0 1.7286,0.0236 3.1985,0.0706 1.7757,0.047 3.3161,0.0706 4.6214,0.0706 5.7385,0 8.7959,0.0235 9.1605,0.0705 -0.1647,-6.7145 -1.8345,-11.7945 -5.0095,-15.2518 -3.1867,-3.4572 -7.8669,-5.1858 -14.0405,-5.1858 -2.2696,0 -4.4098,0.2234 -6.4088,0.6703 -1.9991,0.4468 -3.5984,1.1289 -4.8096,2.0343 -1.1994,0.9055 -2.1049,2.0462 -2.7164,3.3985 -0.6115,1.3523 -1.2347,3.4337 -1.8815,6.2324l-1.3052 0.0353 -0.2705 -11.8534c6.0325,-2.0461 11.8181,-3.0691 17.3567,-3.0691 5.9031,0 10.9126,0.9642 15.0401,2.881 4.1157,1.9167 7.1379,4.7037 9.0546,8.3726 1.9285,3.6689 2.881,7.8081 2.881,12.4178 0,4.6919 -0.9525,9.0546 -2.8575,13.1115 -1.905,4.057 -4.833,7.279 -8.7841,9.6779 -3.9511,2.3989 -9.137,3.5983 -15.534,3.5983 -5.8797,0 -11.6064,-1.3052 -17.1568,-3.9275l-1.5169 -5.1271zm53.5046 -15.193l-1.6581 0c-0.1411,-2.0226 -0.4938,-4.5861 -1.07,-7.6905 3.4219,-1.7639 7.5141,-2.6459 12.2649,-2.6459 3.7865,0 7.1378,0.635 10.0306,1.905 2.8928,1.2818 5.1153,3.2221 6.6675,5.8444 1.5405,2.6223 2.3166,5.7268 2.3166,9.3369 0,3.3514 -0.6585,6.3735 -1.9756,9.0428 -1.317,2.6811 -3.3278,4.8449 -6.0089,6.4912 -2.6929,1.658 -5.8797,2.4812 -9.5838,2.4812 -4.6802,0 -9.0547,-1.4229 -13.1234,-4.2687 -0.1411,-0.5291 -0.3175,-1.0348 -0.5527,-1.5169l0.4822 -0.5527c3.0339,2.1402 6.3617,3.2103 9.9953,3.2103 4.0687,0 7.3849,-1.2818 9.9484,-3.8335 2.5753,-2.54 3.8923,-5.962 3.9276,-10.2659 -4.445,0 -7.5612,0.0471 -9.3251,0.1294 -1.7757,0.0823 -2.8693,0.2352 -3.2809,0.4821 -0.4115,0.2352 -0.7643,0.6233 -1.0465,1.1642 -0.294,0.5409 -0.5645,1.7756 -0.8467,3.7041l-0.2705 0.2823 -1.3523 0 -0.2704 -0.2823c0.1881,-2.8222 0.2704,-4.9859 0.2704,-6.4793 0,-1.5287 -0.0823,-3.5866 -0.2704,-6.1619l0.2704 -0.2704 1.3523 0 0.2705 0.2704c0.6468,2.7987 1.3994,4.398 2.2695,4.7861 0.882,0.388 4.9507,0.5879 12.2297,0.5879 -0.0118,-4.6331 -1.223,-8.2079 -3.5984,-10.7009 -2.3753,-2.493 -5.2799,-3.7277 -8.7253,-3.7277 -1.905,0 -3.5749,0.3763 -4.9977,1.1289 -1.4229,0.7643 -2.446,1.7286 -3.0692,2.9163 -0.6232,1.1759 -1.0466,2.7281 -1.27,4.6331zm51.7408 15.781l0.9996 -0.6585c1.27,2.5047 3.1279,4.3862 5.5856,5.6444 2.4577,1.27 5.2682,1.905 8.4432,1.905 1.999,0 3.7629,-0.1881 5.3034,-0.5527 1.5405,-0.3763 3.0692,-1.0701 4.5979,-2.1049 1.5287,-1.0348 3.0691,-2.4812 4.6331,-4.3627 1.564,-1.8697 2.8575,-3.9628 3.8923,-6.2794 1.0349,-2.3284 1.7522,-4.5156 2.1402,-6.5617 0.3881,-2.0579 0.6938,-4.3274 0.929,-6.8086l-0.4468 0c-0.6468,1.3523 -1.4582,2.3401 -2.4342,2.9398 -0.976,0.6115 -1.9168,1.0936 -2.8222,1.4346 -0.9055,0.3411 -2.6929,0.5174 -5.3505,0.5174 -1.8462,0 -4.104,-0.0705 -6.7969,-0.2116 -2.293,-0.0823 -3.6689,-0.1294 -4.1275,-0.1294 -1.3523,0 -2.3636,0.1294 -3.0339,0.4116 -0.6702,0.2705 -1.1994,0.6585 -1.5875,1.1642 -0.388,0.5056 -0.9877,1.4581 -1.7874,2.8692l-0.7996 -0.8349c1.5169,-4.198 2.5282,-6.6322 3.0339,-7.279 0.5056,-0.6585 1.858,-0.9877 4.0334,-0.9877 1.223,0 3.8218,0.1411 7.8199,0.4115 4.1628,0.3058 6.9615,0.4469 8.4079,0.4469 1.5875,0 2.7164,-0.1999 3.4102,-0.5997 0.6938,-0.3999 1.2465,-0.9525 1.6698,-1.6463 0.4233,-0.7056 0.635,-1.5875 0.635,-2.6459 0,-3.7159 -1.3288,-7.3613 -3.9746,-10.9361 -2.6576,-3.563 -6.4441,-5.3505 -11.383,-5.3505 -2.1637,0 -4.2216,0.3175 -6.1736,0.9643 -1.952,0.635 -3.6336,1.6933 -5.0565,3.1632 -1.4346,1.47 -2.8928,3.9512 -4.3744,7.4437l-0.9055 -0.3058 -0.2352 -0.388c0.7761,-3.2574 1.3641,-6.35 1.7521,-9.2663 2.6224,-1.1172 5.1859,-1.9756 7.6906,-2.54 2.493,-0.5762 5.2094,-0.8702 8.1257,-0.8702 3.8805,0 7.1261,0.4586 9.7366,1.3641 2.5988,0.9054 4.7978,2.2695 6.5735,4.1039 1.7874,1.8227 3.0691,3.9511 3.857,6.3853 0.7996,2.4342 1.1877,5.1859 1.1877,8.2315 0,5.7268 -1.3053,11.089 -3.9394,16.1102 -2.634,5.0212 -6.1853,8.7489 -10.6656,11.1948 -4.4803,2.4459 -9.4074,3.6689 -14.7814,3.6689 -2.7987,0 -5.1623,-0.2352 -7.0909,-0.7173 -1.9285,-0.4821 -3.9393,-1.27 -6.0325,-2.3519 -0.1763,-2.54 -0.3998,-4.539 -0.6585,-5.9854zm49.7182 -5.0683l-0.588 -0.6938c0.7879,-1.952 1.3758,-3.269 1.7639,-3.9746 0.388,-0.7056 0.7879,-1.1524 1.1877,-1.3641 0.3998,-0.1999 1.1053,-0.3057 2.1166,-0.3057l3.4102 0.0353c2.2931,0 3.8923,-0.1059 4.7743,-0.3175 0.8819,-0.1999 1.5522,-0.6468 2.0108,-1.3171 0.4586,-0.682 0.6938,-1.5992 0.6938,-2.7399 0,-2.0931 -0.6703,-3.8688 -2.0226,-5.3269 -1.3405,-1.4582 -3.0339,-2.1873 -5.08,-2.1873 -2.4812,0 -5.08,1.3288 -7.8199,3.9982l-0.2352 -0.0353 -0.2469 -1.0348 0.0353 -0.2705c2.9398,-3.4219 6.5264,-5.1388 10.7479,-5.1388 2.9398,0 5.3387,0.9055 7.2085,2.7282 1.8579,1.8109 2.7869,4.7743 2.7869,8.8782 0,3.1515 -0.3763,6.1501 -1.1406,8.9959 -0.7526,2.8457 -1.9756,5.2446 -3.6454,7.1966 -1.6816,1.9521 -3.7512,3.5513 -6.2207,4.7978 -2.4694,1.2348 -5.0447,1.858 -7.7376,1.858 -1.3288,0 -2.5047,-0.1294 -3.5277,-0.3763 -1.0231,-0.2587 -1.9991,-0.7996 -2.9163,-1.6228 0.3057,-1.4229 0.6702,-3.6218 1.1053,-6.5852l0.2117 -0.2704 0.8937 -0.247 0.2705 0.1411c-0.0236,0.3411 -0.0353,0.6821 -0.0353,0.9996 0,2.2107 0.6703,3.7865 2.0226,4.7507 1.3405,0.9643 2.9163,1.4464 4.739,1.4464 3.1867,0 5.7973,-1.611 7.8199,-4.8566 2.0108,-3.2338 3.222,-8.4784 3.6101,-15.7456l-0.2705 -0.0588c-0.5292,1.4464 -1.1406,2.6223 -1.8344,3.5395 -0.6821,0.9172 -1.3524,1.5405 -1.9874,1.8462 -0.6467,0.3058 -1.6227,0.4704 -2.928,0.4704 -2.5518,0 -4.2804,0.047 -5.1741,0.1293 -0.8937,0.0941 -1.658,0.3411 -2.293,0.7409 -0.6233,0.4115 -1.1995,1.0465 -1.7051,1.9167z"/>
 </g>
</svg>
