<?xml version="1.0" encoding="UTF-8" standalone="no"?>
<!-- Created with Inkscape (http://www.inkscape.org/) -->

<svg
   xmlns:dc="http://purl.org/dc/elements/1.1/"
   xmlns:cc="http://creativecommons.org/ns#"
   xmlns:rdf="http://www.w3.org/1999/02/22-rdf-syntax-ns#"
   xmlns:svg="http://www.w3.org/2000/svg"
   xmlns="http://www.w3.org/2000/svg"
   xmlns:sodipodi="http://sodipodi.sourceforge.net/DTD/sodipodi-0.dtd"
   xmlns:inkscape="http://www.inkscape.org/namespaces/inkscape"
   id="svg2"
   version="1.1"
   inkscape:version="0.48.4 r9939"
   width="700"
   height="200"
   sodipodi:docname="Толстой_Алексей_автограф.svg">
  <metadata
     id="metadata8">
    <rdf:RDF>
      <cc:Work
         rdf:about="">
        <dc:format>image/svg+xml</dc:format>
        <dc:type
           rdf:resource="http://purl.org/dc/dcmitype/StillImage" />
        <dc:title />
      </cc:Work>
    </rdf:RDF>
  </metadata>
  <defs
     id="defs6" />
  <sodipodi:namedview
     pagecolor="#ffffff"
     bordercolor="#666666"
     borderopacity="1"
     objecttolerance="10"
     gridtolerance="10"
     guidetolerance="10"
     inkscape:pageopacity="0"
     inkscape:pageshadow="2"
     inkscape:window-width="1366"
     inkscape:window-height="706"
     id="namedview4"
     showgrid="false"
     inkscape:zoom="1.2404673"
     inkscape:cx="350"
     inkscape:cy="100"
     inkscape:window-x="-8"
     inkscape:window-y="-8"
     inkscape:window-maximized="1"
     inkscape:current-layer="svg2"
     fit-margin-left="2.7755576e-017"
     fit-margin-top="0"
     fit-margin-right="0"
     fit-margin-bottom="0" />
  <g
     id="g2995"
     transform="matrix(0.32481138,0,0,0.32481138,-27.988814,-13.972928)">
    <path
       style="font-size:medium;font-style:normal;font-variant:normal;font-weight:normal;font-stretch:normal;text-indent:0;text-align:start;text-decoration:none;line-height:normal;letter-spacing:normal;word-spacing:normal;text-transform:none;direction:ltr;block-progression:tb;writing-mode:lr-tb;text-anchor:start;baseline-shift:baseline;color:#000000;fill:#000000;fill-opacity:1;stroke:none;stroke-width:15;marker:none;visibility:visible;display:inline;overflow:visible;enable-background:accumulate;font-family:Sans;-inkscape-font-specification:Sans"
       d="m 584.71875,86 c -15.98825,16.94643 -37.64272,40.96451 -63.40474,79.61165 -20.28435,29.94227 -39.58149,62.35474 -56.96269,87.97177 L 366.9375,359.65625 c -42.90542,-81.55405 -125.89531,34.37726 -114.55444,100.68548 -17.21983,13.5503 -21.76791,16.5882 -39.26386,27.24942 -22.5314,13.7296 -45.48657,13.68712 -59.66969,10.6362 -23.91742,-8.09358 -26.37214,-46.79553 -22.59868,-55.58128 2.54555,-7.71532 15.06536,-29.88173 26.60398,-37.5937 24.05476,-14.58461 46.55698,-4.82448 36.57634,21.07278 -6.13678,18.71583 -29.49762,20.81678 -30.5,5.4375 -4.52743,-13.75739 -19.01418,-2.81587 -14.6563,16.4375 2.85786,17.55329 24.53469,17.23593 37.65625,9.34375 8.86148,-5.50386 16.9248,-14.38364 21.4375,-25.65625 16.37999,-34.52888 3.71811,-52.22215 -31.53125,-53.59375 -10.21252,0.29451 -19.92886,4.40491 -28.65625,10.15625 -17.38835,11.4589 -31.40807,29.35601 -36.75,45.09375 -0.0177,0.0486 -0.0136,0.10763 -0.0312,0.15625 -0.004,0.0123 -0.0271,0.0189 -0.0312,0.0312 -5.42703,14.9888 -7.06361,31.78594 -7.1933,49.52545 -0.19515,26.69467 6.05266,44.55327 31.48972,57.43658 32.79219,9.55296 59.52277,-11.43804 83.68841,-29.13212 15.79512,-12.1319 23.03967,-15.6647 37.63829,-27.74652 4.994,20.26669 30.2257,40.56537 45.75821,51.9597 0.8639,0.34641 -0.62039,22.47585 0.24453,22.7673 17.80938,6.00119 26.68243,0.70436 41.00341,-1.30122 l 11.95646,-23.66687 28.83107,-29.03381 c -11.64547,1.53121 -9.58224,-8.68214 -5.26311,-16.54659 l 109.98012,-211.53736 89.36619,-101.59954 0.3125,-0.28125 0.25,-0.34375 c 13.6477,-14.29322 33.25736,-33.29528 55.92112,-65.8929 C 658.59986,63.086119 642.00947,32.000234 584.71875,86 z m -18.46724,75.62803 c -8.96702,8.49091 23.00768,-46.4756 31.3868,-59.30672 18.34138,-25.354322 28.25721,-17.479439 14.58028,3.78719 -12.9737,20.17314 -37.89761,45.63702 -45.96708,55.51953 z m -166.13905,193.19096 -20.23292,39.26319 c -3.5005,-11.44756 -1.83104,-7.34446 -6.28579,-19.98843 z m -49.01423,18.02247 c -27.04703,26.31942 -65.82406,61.43887 -71.60858,64.39031 -2.80593,-42.50627 29.94584,-112.28978 71.60858,-64.39031 z m 8.09151,14.86925 c 7.5055,12.29122 4.55012,48.58131 -15.03294,96.30004 11.52037,-18.48596 44.59046,-33.96813 33.81195,-62.01075 -30.95871,54.95378 -33.74927,93.36425 -84.94658,47.09829 -2.11652,-3.40496 -4.08491,-7.2615 -5.54032,-11.15298 27.47132,-23.93267 45.44805,-48.2981 71.70789,-70.2346 z"
       id="path2987"
       inkscape:connector-curvature="0"
       sodipodi:nodetypes="cccccscccccccccscccsccccsccccccccccccscccccccccccccc" />
    <path
       style="font-size:medium;font-style:normal;font-variant:normal;font-weight:normal;font-stretch:normal;text-indent:0;text-align:start;text-decoration:none;line-height:normal;letter-spacing:normal;word-spacing:normal;text-transform:none;direction:ltr;block-progression:tb;writing-mode:lr-tb;text-anchor:start;baseline-shift:baseline;color:#000000;fill:#000000;fill-opacity:1;stroke:none;stroke-width:15;marker:none;visibility:visible;display:inline;overflow:visible;enable-background:accumulate;font-family:Sans;-inkscape-font-specification:Sans"
       d="m 606.3125,392.15625 c -10.89075,10.13513 -22.20124,25.41543 -32.21875,46.21875 -3.7463,6.93894 -11.88503,31.22979 -15.69418,45.49271 -72.85004,61.25676 -39.15831,-46.25718 -19.8401,-62.53817 15.97283,-21.43092 -10.50365,-41.11144 -26.6181,-12.2045 -16.02388,23.2015 -19.45314,45.32347 -28.08489,64.0722 -9.30253,12.14094 -21.71748,23.53844 -33.85648,29.52155 -7.18579,1.71512 -17.17778,2.75083 -21.78579,-1.01549 -3.98973,-4.00534 6.71908,-20.09506 10.28579,-25.35951 14.71833,-24.54843 -11.27558,-30.34886 -21.33983,-8.04915 -9.7673,17.14774 -17.27131,23.55313 -30.72267,34.0179 -13.45136,10.46477 -26.65178,17.40139 -41.53125,17.1875 l -0.21875,15 c 19.66016,0.28262 29.23102,-3.21006 43.92201,-14.63924 4.75204,-3.69695 7.62689,-3.63212 11.46359,-5.31189 2.80084,6.16402 3.92961,8.11737 8.24546,12.30218 3.55429,3.47421 13.29738,8.31589 18.48575,6.95085 21.87652,-4.31403 36.18978,-12.48425 50.99057,-24.06855 -3.92531,11.28087 8.47095,19.56511 20.93936,22.20993 23.61831,5.03193 40.27332,-11.54156 61.23451,-23.47453 9.60209,39.36947 65.26842,16.19484 86.71599,-3.99814 -4.27364,13.60007 -6.81437,19.4761 -8.25925,26.9684 -5.97602,16.98911 1.34163,20.33865 12.82451,11.87349 21.39792,-12.64012 30.0905,-20.03844 46.32826,-28.46235 -2.0654,13.1546 12.87298,25.46084 22.14414,30.13926 7.43983,2.87976 30.92743,7.62535 48.92388,2.11467 24.11814,-14.22938 -1.58389,-18.23419 -16.35016,-22.3198 -51.54866,-28.91186 -11.05331,-59.23547 3.96937,-84.77547 24.14508,-47.84938 -24.53146,-28.20928 -48.67355,4.92718 -4.47963,7.04668 -7.24905,32.13813 -13.02053,41.59953 -11.09404,18.18686 -16.20079,11.47825 -9.76312,-4.61387 2.65151,-6.6279 6.48412,-21.49879 10.83769,-24.6437 6.16472,-4.78414 20.90295,-30.53293 21.82861,-35.18634 3.16476,-12.04729 -11.32801,-21.13392 -26.40603,-5.26941 -2.67422,4.12376 -8.21424,17.37628 -10.83253,21.52885 -40.63368,87.24571 -83.53522,60.84482 -79.36005,42.11583 5.61665,-5.01156 21.90157,-23.97502 27.65527,-30.27938 L 628.6875,450 c 33.07464,-30.65522 41.8975,-109.43285 -22.375,-57.84375 z m 25.69356,14.56312 c -6.09822,30.29145 -22.70521,39.83095 -32.74236,47.62857 -1.21996,-14.73088 7.58518,-31.01336 18.94535,-48.20291 5.71727,-8.57218 16.12128,-13.64601 13.79701,0.57434 z"
       id="path2989"
       inkscape:connector-curvature="0"
       sodipodi:nodetypes="ccccccccccsccscccccccccccccccsscccccccccccc" />
    <path
       style="font-size:medium;font-style:normal;font-variant:normal;font-weight:normal;font-stretch:normal;text-indent:0;text-align:start;text-decoration:none;line-height:normal;letter-spacing:normal;word-spacing:normal;text-transform:none;direction:ltr;block-progression:tb;writing-mode:lr-tb;text-anchor:start;baseline-shift:baseline;color:#000000;fill:#000000;fill-opacity:1;stroke:none;stroke-width:15;marker:none;visibility:visible;display:inline;overflow:visible;enable-background:accumulate;font-family:Sans;-inkscape-font-specification:Sans"
       d="m 865.3125,386.75 c -13.54038,-0.84442 -33.09535,8.41777 -45.34437,17.4278 -52.83982,35.93383 -51.67452,97.3004 -23.33494,117.25 12.00222,9.51935 80.54533,-4.92612 83.57764,-10.58708 22.48464,-25.77225 71.6643,-51.15614 73.12749,-81.76789 3.05123,-17.48956 -16.86825,-20.59122 -28.16266,-15.12411 -16.08889,9.30876 -35.42949,41.72843 -47.44418,83.39654 -85.47209,14.45446 -79.37542,-48.12309 -42.48148,-82.75151 31.65259,-21.85575 47.53539,-1.53413 34.67477,17.50908 -9.90068,10.00459 -10.62447,-0.78318 -9.01336,-9.46813 4.81806,-10.80062 -14.0577,-12.54004 -16.94266,-1.79095 -5.89376,10.41752 -7.35835,18.62812 -6.94934,25.58859 2.50933,15.6897 15.33551,24.50761 28.57434,15.13016 4.36494,-3.14134 8.37596,-7.48552 12.09375,-12.5625 7.43558,-10.15396 13.70518,-23.01338 14.0625,-35.71875 0.17866,-6.35268 -1.37915,-13.07125 -6.03125,-18.1875 -4.63467,-5.09708 -11.74884,-7.89236 -20.3125,-8.34375 -0.0322,-0.002 -0.0615,0.002 -0.0937,0 z"
       id="path2991"
       inkscape:connector-curvature="0"
       sodipodi:nodetypes="cccccccccccccsssccc" />
    <path
       style="font-size:medium;font-style:normal;font-variant:normal;font-weight:normal;font-stretch:normal;text-indent:0;text-align:start;text-decoration:none;line-height:normal;letter-spacing:normal;word-spacing:normal;text-transform:none;direction:ltr;block-progression:tb;writing-mode:lr-tb;text-anchor:start;baseline-shift:baseline;color:#000000;fill:#000000;fill-opacity:1;stroke:none;stroke-width:15;marker:none;visibility:visible;display:inline;overflow:visible;enable-background:accumulate;font-family:Sans;-inkscape-font-specification:Sans"
       d="m 996.03125,423.40625 c -15.22206,17.68424 -30.34133,38.71974 -46.5625,53.0625 -14.25854,12.60739 -42.20693,19.99079 -21.62857,-9.22275 -19.89844,10.48323 -37.50217,27.67278 -49.3481,44.41907 39.52137,11.06374 52.18448,-0.28494 76.3823,-14.59162 -0.13596,30.32596 33.9639,25.57383 57.90682,-0.2922 -0.759,3.45822 -1.2621,6.76383 -1.3124,9.84375 -0.057,3.48419 0.3571,7.13448 2.7812,10.53125 2.4241,3.39677 7.0445,5.30241 11,5.28125 7.928,-0.0424 16.9687,0.70224 26.4062,-11.78125 8.1824,-6.19108 -2.5578,-16.1386 -8.4687,-12.375 -18.262,10.252 -6.0298,-24.93993 -0.5,-37.03125 4.6873,-12.95477 -9.7901,-13.63348 -12.9375,-7.5 -28.8414,55.11001 -60.05745,38.78055 -18.6675,-20.46207 10.0366,-13.36153 -2.7613,-22.26093 -15.05125,-9.88168 z"
       id="path2993"
       inkscape:connector-curvature="0"
       sodipodi:nodetypes="cscccccsscccccc" />
    <path
       style="font-size:medium;font-style:normal;font-variant:normal;font-weight:normal;font-stretch:normal;text-indent:0;text-align:start;text-decoration:none;line-height:normal;letter-spacing:normal;word-spacing:normal;text-transform:none;direction:ltr;block-progression:tb;writing-mode:lr-tb;text-anchor:start;baseline-shift:baseline;color:#000000;fill:#000000;fill-opacity:1;stroke:none;stroke-width:15;marker:none;visibility:visible;display:inline;overflow:visible;enable-background:accumulate;font-family:Sans;-inkscape-font-specification:Sans"
       d="m 1341.7072,172.09344 c -38.3473,5.98084 -66.2906,49.2264 -89.9696,75.84224 -41.434,15.4769 -73.211,31.85386 -114.8626,47.40807 -26.4219,7.55129 -62.8028,23.30869 -82.25,44.2187 -16.3745,18.05726 -23.2621,38.53903 -27.8438,58.46875 -0.1389,11.60715 12.6126,7.4884 14.625,-1.99394 4.3541,-18.93991 10.3335,-30.96222 24.3438,-46.41231 14.0103,-15.45009 36.4474,-29.35474 75.0312,-39.78125 l 0.3438,-0.0937 0.3438,-0.125 c 35.0122,-13.08456 47.2944,-12.73837 82.4632,-25.62376 -66.3571,100.56885 -68.6312,168.62656 -118.836,262.64788 -8.7338,17.78038 7.2346,15.50869 11.8496,12.63437 15.2081,-6.06372 56.9677,-34.03139 81.2732,-55.97099 12.2844,-11.08864 25.8022,-19.22106 35.875,-28.125 10.0727,-8.90394 17.8691,-16.98397 21.9687,-25.59375 l 0.1563,-0.3125 0.125,-0.34375 c 22.5426,-52.02842 37.2821,-49.05045 97.5035,-147.83174 20.6978,-34.94958 2.7988,-62.69973 -35.2727,-7.59375 -53.7644,62.92528 -68.6758,111.40265 -95.8417,166.15447 -19.3091,28.61101 -48.2435,44.69026 -55.6621,50.18353 43.7139,-89.44632 42.1768,-149.72274 109.3297,-245.58671 38.9271,-12.60086 62.5244,-25.82899 84.8648,-61.10376 2.5862,-4.30675 4.6814,-7.98662 5.4606,-11.8125 0.7791,-3.82588 0.9515,-9.95515 -2.0165,-13.27974 -2.9679,-3.32459 -7.0535,-5.42457 -10.5115,-5.67445 -3.9927,-0.88252 -9.2402,-0.85547 -12.4907,-0.29941 z m 1.345,28.71634 c -7.5294,11.49231 -25.0764,25.90856 -42.4302,33.97216 -3.6397,1.47514 -7.3758,-0.84385 -5.2995,-5.34333 0.3717,-3.55037 19.3152,-31.4598 42.8216,-37.89734 10.0601,-1.80105 10.5505,0.4308 4.9081,9.26851 z"
       id="path2995"
       inkscape:connector-curvature="0"
       sodipodi:nodetypes="ccccccsccccccsscccccccccccccccccc" />
    <path
       style="font-size:medium;font-style:normal;font-variant:normal;font-weight:normal;font-stretch:normal;text-indent:0;text-align:start;text-decoration:none;line-height:normal;letter-spacing:normal;word-spacing:normal;text-transform:none;direction:ltr;block-progression:tb;writing-mode:lr-tb;text-anchor:start;baseline-shift:baseline;color:#000000;fill:#000000;fill-opacity:1;stroke:none;stroke-width:15;marker:none;visibility:visible;display:inline;overflow:visible;enable-background:accumulate;font-family:Sans;-inkscape-font-specification:Sans"
       d="m 1394.6063,302.02097 c -38.3481,49.6425 -78.3431,108.61745 -82.029,168.18262 -74.9526,75.70554 -60.2653,-1.37838 -27.8567,-69.78289 l -63.4224,66.81362 c -9.3852,73.19628 -5.6381,92.58408 56.858,56.57818 12.5687,-7.29987 19.1434,-9.18656 35.8076,-22.36431 29.4139,68.24232 108.9705,-1.95613 123.3174,-40.19819 l -14.125,-5 c -23.1451,46.26624 -73.2855,61.54345 -74.1303,8.04204 -0.2403,-13.706 78.2443,-85.13978 89.7553,-144.16704 4.0338,-26.75835 -14.9155,-40.52644 -44.1749,-18.10403 z m 23.6497,31.39408 c -18.2517,42.77689 -24.8062,40.08956 -48.8161,73.97125 -5.8187,-58.56095 56.2157,-102.36692 48.8161,-73.97125 z"
       id="path2997"
       inkscape:connector-curvature="0"
       sodipodi:nodetypes="cccccccccccccc" />
    <path
       style="font-size:medium;font-style:normal;font-variant:normal;font-weight:normal;font-stretch:normal;text-indent:0;text-align:start;text-decoration:none;line-height:normal;letter-spacing:normal;word-spacing:normal;text-transform:none;direction:ltr;block-progression:tb;writing-mode:lr-tb;text-anchor:start;baseline-shift:baseline;color:#000000;fill:#000000;fill-opacity:1;stroke:none;stroke-width:15;marker:none;visibility:visible;display:inline;overflow:visible;enable-background:accumulate;font-family:Sans;-inkscape-font-specification:Sans"
       d="m 1472.9489,389.9317 c -53.1148,24.10349 -72.2556,98.95551 -59.89,114.67722 12.3656,15.72171 23.5832,18.98455 37.2388,16.70938 27.9963,-4.66449 38.7795,-14.38338 54.5148,-39.0683 17.2223,-19.35981 24.9185,-39.35212 24.9375,-56.15625 -0.072,-35.92668 -27.6342,-49.64187 -56.8011,-36.16205 z m 38.0047,37.79173 c 0.7823,12.93835 -12.9086,41.06369 -20.2293,47.94398 -32.3935,30.11129 -50.195,1.70959 -41.8372,-16.23103 5.0644,-12.74438 14.2857,-31.63989 25.3864,-42.71183 16.2645,-19.08424 34.0016,-9.84384 36.6801,10.99888 z"
       id="path3001"
       inkscape:connector-curvature="0"
       sodipodi:nodetypes="czscccccccc" />
    <path
       style="font-size:medium;font-style:normal;font-variant:normal;font-weight:normal;font-stretch:normal;text-indent:0;text-align:start;text-decoration:none;line-height:normal;letter-spacing:normal;word-spacing:normal;text-transform:none;direction:ltr;block-progression:tb;writing-mode:lr-tb;text-anchor:start;baseline-shift:baseline;color:#000000;fill:#000000;fill-opacity:1;stroke:none;stroke-width:15;marker:none;visibility:visible;display:inline;overflow:visible;enable-background:accumulate;font-family:Sans;-inkscape-font-specification:Sans"
       d="m 1622.4349,395.46317 c -9.848,10.08819 -21.7944,33.34568 -36.9976,71.63058 -26.191,35.70549 -46.7453,27.90478 -53.0763,24.05745 -13.0868,-7.95286 6.6425,-30.37105 11.7935,-4.079 4.3873,0.3988 7.7589,-1.63979 7.7033,-11.90384 -3.4489,-22.01169 -30.1428,-13.55054 -45.6776,-4.01567 -5.7923,7.19159 -8.122,24.12048 -0.1607,37.82095 19.9968,21.69295 57.4011,2.32769 74.7461,-10.63532 20.5451,23.81559 41.0005,25.18584 69.5841,15.80974 42.689,-13.17593 44.5159,-29.87959 -5.285,-19.93964 -71.8645,1.17421 -13.9383,-34.91844 3.3026,-85.91893 3.8622,-19.6172 -5.3083,-31.54964 -25.9324,-12.82632 z"
       id="path3003"
       inkscape:connector-curvature="0"
       sodipodi:nodetypes="ccsccccccccc" />
    <path
       style="font-size:medium;font-style:normal;font-variant:normal;font-weight:normal;font-stretch:normal;text-indent:0;text-align:start;text-decoration:none;line-height:normal;letter-spacing:normal;word-spacing:normal;text-transform:none;direction:ltr;block-progression:tb;writing-mode:lr-tb;text-anchor:start;baseline-shift:baseline;color:#000000;fill:#000000;fill-opacity:1;stroke:none;stroke-width:15;marker:none;visibility:visible;display:inline;overflow:visible;enable-background:accumulate;font-family:Sans;-inkscape-font-specification:Sans"
       d="m 2026.9405,205.86619 c -49.7377,9.33155 -83.9584,9.37669 -142.2993,46.83494 -70.3056,49.80809 -64.7409,98.13801 -71.953,152.51762 -22.3899,27.7051 -46.7117,79.91583 -67.1696,83.1153 -61.3727,33.68149 -86.8364,-59.2166 -22.2946,-64.8832 16.1693,1.43489 14.4645,22.87443 5.5133,24.77458 -1.7469,-28.62452 -38.7289,-17.42691 -22.3504,12.61013 2.6205,4.6649 10.2233,7.99016 15.3013,8.53944 9.9065,0.31236 17.1945,-7.02857 21.75,-14.15625 4.9271,-7.79899 8.2815,-17.4445 7.25,-27.1875 -1.5425,-12.01614 -10.7433,-19.69689 -21.2813,-21.4375 l -0.125,-0.0312 c -14.9532,-0.0559 -33.0862,4.46994 -40.4062,10.4375 -59.0792,55.3245 -44.9066,129.72946 60.2493,84.9687 -8.8089,15.97909 -18.1865,34.62476 -28.6875,58.5 l -0.062,0.15625 -0.062,0.125 c -37.9649,94.74761 -5.7612,124.94492 46.7187,58.6875 11.634,-14.84816 22.1987,-32.99364 28.3126,-51.625 0.01,-0.0222 0.024,-0.0403 0.031,-0.0625 19.209,-56.76479 23.2183,-91.06827 28.9339,-135.75987 4.8623,-6.87445 17.891,-20.36952 23.13,-28.82543 9.0864,-17.09935 -4.2529,-25.11082 -16.2201,-18.7272 7.3669,-45.04049 10.2975,-77.01523 47.9136,-103.40255 42.3691,-30.87859 196.7127,-54.98618 155.8698,-28.23424 -9.3257,6.89687 2.5188,22.43361 10.372,16.26184 9.8908,-5.87605 20.6146,-13.44989 27.875,-21.34375 21.9875,-30.10268 2.8629,-52.98068 -46.3095,-41.85261 z M 1781.125,563 l 0,0.0312 c -13.9139,43.1145 -56.9162,67.68105 -36.9094,6.60306 3.2846,-9.47198 40.3499,-90.61013 62.423,-119.45582 4.162,-10.85469 -20.117,96.60371 -25.5136,112.82156 z"
       id="path3005"
       inkscape:connector-curvature="0"
       sodipodi:nodetypes="ccccccccccccccccccccccccccccccccc" />
    <path
       style="font-size:medium;font-style:normal;font-variant:normal;font-weight:normal;font-stretch:normal;text-indent:0;text-align:start;text-decoration:none;line-height:normal;letter-spacing:normal;word-spacing:normal;text-transform:none;direction:ltr;block-progression:tb;writing-mode:lr-tb;text-anchor:start;baseline-shift:baseline;color:#000000;fill:#000000;fill-opacity:1;stroke:none;stroke-width:15;marker:none;visibility:visible;display:inline;overflow:visible;enable-background:accumulate;font-family:Sans;-inkscape-font-specification:Sans"
       d="m 1896.5,420.90625 c -4.5099,2.35005 -22.2783,15.45535 -29.558,33.91114 -7.2797,18.45578 -20.5362,56.62731 13.1828,57.12011 42.8669,0.0369 67.8974,-45.31859 64.0938,-85.59375 -8.2566,-16.26274 -20.0093,-10.6935 -17.7223,5.79642 -15.2321,71.00508 -59.3365,58.76057 -18.4711,5.39016 11.7437,-13.18577 0.9892,-23.79828 -11.5254,-16.62408 z"
       id="path3007"
       inkscape:connector-curvature="0"
       sodipodi:nodetypes="czcccccc" />
    <path
       style="font-size:medium;font-style:normal;font-variant:normal;font-weight:normal;font-stretch:normal;text-indent:0;text-align:start;text-decoration:none;line-height:normal;letter-spacing:normal;word-spacing:normal;text-transform:none;direction:ltr;block-progression:tb;writing-mode:lr-tb;text-anchor:start;baseline-shift:baseline;color:#000000;fill:#000000;fill-opacity:1;stroke:none;stroke-width:15;marker:none;visibility:visible;display:inline;overflow:visible;enable-background:accumulate;font-family:Sans;-inkscape-font-specification:Sans"
       d="m 2005.6875,423.03125 c -11.151,11.41395 -24.1043,22.95966 -33.8125,36.59375 -7.3053,-0.33752 -14.0439,-0.25098 -18.75,-0.84375 -5.5213,-0.58559 -10.936,-4.28008 -13.1402,-9.39017 l -10.2036,9.20267 c 8.6285,16.97823 22.5202,15.06475 33.5938,18.06026 -2.7265,6.13783 -4.7295,10.33226 -5.4688,17.53349 -1.0584,8.80655 10.3419,17.03942 18.713,13.64241 5.4589,-0.13576 10.8649,-3.37163 15.4746,-5.64241 8.9763,-4.42187 17.3329,-10.76413 26.3437,-15.34375 0.079,0.57996 0.02,1.109 0.1875,1.71875 3.4056,26.74484 43.9412,17.04608 55.2193,13.0312 11.793,-5.8472 21.1019,-18.28317 23.875,-19.90625 8.557,-4.99204 6.113,-19.26932 -7.1585,-11.35647 -18.747,16.52111 -26.0934,14.12496 -40.1512,9.90961 -3.6551,-2.97994 -10.7144,-6.67034 -8.1127,-10.88661 5.5326,-8.96602 9.2025,-6.4488 15.6734,-15.92549 5.5462,-10.1937 -3.6864,-20.00211 -13.5856,-9.07522 l -33.2592,29.36543 c -24.767,11.06303 -35.574,0.76337 7.2107,-38.76384 8.8694,-8.7933 -0.9253,-20.3747 -12.6482,-11.92366 z"
       id="path3009"
       inkscape:connector-curvature="0"
       sodipodi:nodetypes="ccccccccsccccccscccccc" />
    <path
       style="font-size:medium;font-style:normal;font-variant:normal;font-weight:normal;font-stretch:normal;text-indent:0;text-align:start;text-decoration:none;line-height:normal;letter-spacing:normal;word-spacing:normal;text-transform:none;direction:ltr;block-progression:tb;writing-mode:lr-tb;text-anchor:start;baseline-shift:baseline;color:#000000;fill:#000000;fill-opacity:1;stroke:none;stroke-width:15;marker:none;visibility:visible;display:inline;overflow:visible;enable-background:accumulate;font-family:Sans;-inkscape-font-specification:Sans"
       d="m 2183.9375,307.46875 c -61.0483,3.62884 -135.6164,53.91568 -146.0313,93.09375 -0.2248,9.78895 13.3685,12.47663 14.8438,2.125 0.6651,-4.70515 18.6731,-30.53861 33.4701,-38.23972 64.0028,-31.48785 162.3992,-46.29084 84.0924,0.70847 -6.1838,3.97706 1.2331,18.39641 10.9295,12.47455 8.6307,-6.51417 23.6222,-15.41936 33.9374,-25.34375 5.1577,-4.96219 7.8652,-10.7316 8.6956,-18.1308 3.0609,-25.83774 -13.9103,-32.1534 -39.9375,-26.6875 z"
       id="path3011"
       inkscape:connector-curvature="0"
       sodipodi:nodetypes="ccccccscc" />
    <path
       style="font-size:medium;font-style:normal;font-variant:normal;font-weight:normal;font-stretch:normal;text-indent:0;text-align:start;text-decoration:none;line-height:normal;letter-spacing:normal;word-spacing:normal;text-transform:none;direction:ltr;block-progression:tb;writing-mode:lr-tb;text-anchor:start;baseline-shift:baseline;color:#000000;fill:#000000;fill-opacity:1;stroke:none;stroke-width:15;marker:none;visibility:visible;display:inline;overflow:visible;enable-background:accumulate;font-family:Sans;-inkscape-font-specification:Sans"
       d="m 1942.3513,57.114674 c -87.7937,0.698752 -184.6055,14.068863 -307.3201,32.354076 -0.085,0.01263 -0.1651,0.01861 -0.25,0.03125 -236.9895,26.15673 -401.2824,76.29724 -532.3674,135.10862 -23.3382,10.00841 -36.2258,44.75688 -21.4657,63.07277 40.6336,12.85315 -1.4857,-29.41783 33.2409,-47.49697 231.0945,-79.53858 289.2915,-120.76226 818.63,-148.297004 14.2514,1.944928 320.9062,-17.104646 203.0981,57.951794 -34.3874,24.39597 -50.4209,28.05759 -85.9305,32.72783 -12.2704,-0.66679 -27.5024,22.82161 2.5774,18.23059 41.5735,-5.33445 83.768,-15.98715 116.1844,-42.29763 34.5835,-29.50155 35.7233,-59.052565 18.042,-74.777951 -60.4158,-44.581361 -175.2622,-25.87746 -244.4391,-26.607375 z"
       id="path3013"
       inkscape:connector-curvature="0"
       sodipodi:nodetypes="ccccccccccccc" />
  </g>
</svg>
